<svg xmlns="http://www.w3.org/2000/svg" viewBox="0 0 300 300" width="300" height="300" preserveAspectRatio="xMidYMid slice" style="width: 100%; height: 100%; transform: translate3d(0px, 0px, 0px);"><defs><clipPath id="__lottie_element_2"><rect width="300" height="300" x="0" y="0"></rect></clipPath></defs><g clip-path="url(#__lottie_element_2)"><g transform="matrix(0,0.6391800045967102,-0.6391800045967102,0,145,50.5)" opacity="1" style="display: block;"><g opacity="1" transform="matrix(1,0,0,1,0,0)"><path fill="rgb(235,235,235)" fill-opacity="1" d=" M80.41100311279297,0 C80.41100311279297,0 89.4990005493164,0 89.4990005493164,0 C89.4990005493164,0 89.4990005493164,-1.7640000581741333 89.4990005493164,-1.7640000581741333 C89.4990005493164,-1.7640000581741333 82.53800201416016,-1.7640000581741333 82.53800201416016,-1.7640000581741333 C82.53800201416016,-1.7640000581741333 82.53800201416016,-16.291000366210938 82.53800201416016,-16.291000366210938 C82.53800201416016,-16.291000366210938 80.41100311279297,-16.291000366210938 80.41100311279297,-16.291000366210938 C80.41100311279297,-16.291000366210938 80.41100311279297,0 80.41100311279297,0z"></path></g><g opacity="1" transform="matrix(1,0,0,1,0,0)"><path fill="rgb(235,235,235)" fill-opacity="1" d=" M66.68399810791016,0 C66.68399810791016,0 75.77200317382812,0 75.77200317382812,0 C75.77200317382812,0 75.77200317382812,-1.7640000581741333 75.77200317382812,-1.7640000581741333 C75.77200317382812,-1.7640000581741333 68.81099700927734,-1.7640000581741333 68.81099700927734,-1.7640000581741333 C68.81099700927734,-1.7640000581741333 68.81099700927734,-16.291000366210938 68.81099700927734,-16.291000366210938 C68.81099700927734,-16.291000366210938 66.68399810791016,-16.291000366210938 66.68399810791016,-16.291000366210938 C66.68399810791016,-16.291000366210938 66.68399810791016,0 66.68399810791016,0z"></path></g><g opacity="1" transform="matrix(1,0,0,1,0,0)"><path fill="rgb(235,235,235)" fill-opacity="1" d=" M54.20100021362305,-1.4500000476837158 C50.88999938964844,-1.4500000476837158 49.005001068115234,-4.617000102996826 49.005001068115234,-8.048999786376953 C49.005001068115234,-11.57800006866455 50.744998931884766,-14.84000015258789 54.25,-14.84000015258789 C57.755001068115234,-14.84000015258789 59.44599914550781,-11.456999778747559 59.44599914550781,-8.218000411987305 C59.44599914550781,-4.519999980926514 57.56100082397461,-1.4500000476837158 54.22600173950195,-1.4500000476837158 C54.22600173950195,-1.4500000476837158 54.20100021362305,-1.4500000476837158 54.20100021362305,-1.4500000476837158z M54.15299987792969,0.26600000262260437 C58.2859992980957,0.26600000262260437 61.694000244140625,-2.7309999465942383 61.694000244140625,-8.314000129699707 C61.694000244140625,-13.14799976348877 58.81700134277344,-16.555999755859375 54.34600067138672,-16.555999755859375 C49.994998931884766,-16.555999755859375 46.80500030517578,-13.17199993133545 46.80500030517578,-8 C46.80500030517578,-3.069000005722046 49.803001403808594,0.26600000262260437 54.12900161743164,0.26600000262260437 C54.12900161743164,0.26600000262260437 54.15299987792969,0.26600000262260437 54.15299987792969,0.26600000262260437z"></path></g><g opacity="1" transform="matrix(1,0,0,1,0,0)"><path fill="rgb(235,235,235)" fill-opacity="1" d=" M34.49100112915039,-14.574000358581543 C34.854000091552734,-14.670999526977539 35.55500030517578,-14.767999649047852 36.56999969482422,-14.767999649047852 C38.79399871826172,-14.767999649047852 40.316001892089844,-13.850000381469727 40.316001892089844,-11.746999740600586 C40.316001892089844,-9.88599967956543 38.88999938964844,-8.652999877929688 36.641998291015625,-8.652999877929688 C36.641998291015625,-8.652999877929688 34.49100112915039,-8.652999877929688 34.49100112915039,-8.652999877929688 C34.49100112915039,-8.652999877929688 34.49100112915039,-14.574000358581543 34.49100112915039,-14.574000358581543z M32.388999938964844,0 C32.388999938964844,0 34.49100112915039,0 34.49100112915039,0 C34.49100112915039,0 34.49100112915039,-7.058000087738037 34.49100112915039,-7.058000087738037 C34.49100112915039,-7.058000087738037 36.472999572753906,-7.058000087738037 36.472999572753906,-7.058000087738037 C38.38199996948242,-6.985000133514404 39.277000427246094,-6.138999938964844 39.7599983215332,-3.8910000324249268 C40.19499969482422,-1.8609999418258667 40.55799865722656,-0.45899999141693115 40.82400131225586,0 C40.82400131225586,0 42.999000549316406,0 42.999000549316406,0 C42.685001373291016,-0.628000020980835 42.29800033569336,-2.1989998817443848 41.76599884033203,-4.4710001945495605 C41.35499954223633,-6.163000106811523 40.606998443603516,-7.323999881744385 39.374000549316406,-7.758999824523926 C39.374000549316406,-7.758999824523926 39.374000549316406,-7.830999851226807 39.374000549316406,-7.830999851226807 C41.066001892089844,-8.41100025177002 42.44300079345703,-9.836999893188477 42.44300079345703,-11.96399974822998 C42.44300079345703,-13.244999885559082 41.959999084472656,-14.357000350952148 41.1619987487793,-15.057999610900879 C40.14699935913086,-15.97599983215332 38.67300033569336,-16.410999298095703 36.42499923706055,-16.410999298095703 C34.999000549316406,-16.410999298095703 33.45199966430664,-16.267000198364258 32.388999938964844,-16.048999786376953 C32.388999938964844,-16.048999786376953 32.388999938964844,0 32.388999938964844,0z"></path></g><g opacity="1" transform="matrix(1,0,0,1,0,0)"><path fill="rgb(235,235,235)" fill-opacity="1" d=" M27.01799964904785,-2.1989998817443848 C26.172000885009766,-1.7879999876022339 24.865999221801758,-1.5230000019073486 23.56100082397461,-1.5230000019073486 C19.621000289916992,-1.5230000019073486 17.326000213623047,-4.060999870300293 17.326000213623047,-8.072999954223633 C17.326000213623047,-12.35099983215332 19.863000869750977,-14.791999816894531 23.68199920654297,-14.791999816894531 C25.035999298095703,-14.791999816894531 26.172000885009766,-14.501999855041504 26.94499969482422,-14.114999771118164 C26.94499969482422,-14.114999771118164 27.476999282836914,-15.831000328063965 27.476999282836914,-15.831000328063965 C26.92099952697754,-16.121000289916992 25.615999221801758,-16.555999755859375 23.610000610351562,-16.555999755859375 C18.558000564575195,-16.555999755859375 15.10200023651123,-13.12399959564209 15.10200023651123,-8 C15.10200023651123,-2.634000062942505 18.534000396728516,0.26600000262260437 23.125999450683594,0.26600000262260437 C25.107999801635742,0.26600000262260437 26.68000030517578,-0.12099999934434891 27.429000854492188,-0.5080000162124634 C27.429000854492188,-0.5080000162124634 27.01799964904785,-2.1989998817443848 27.01799964904785,-2.1989998817443848z"></path></g><g opacity="1" transform="matrix(1,0,0,1,0,0)"><path fill="rgb(235,235,235)" fill-opacity="1" d=" M1.0149999856948853,-0.7979999780654907 C1.8849999904632568,-0.21799999475479126 3.6010000705718994,0.26600000262260437 5.171999931335449,0.26600000262260437 C9.015000343322754,0.26600000262260437 10.85200023651123,-1.9329999685287476 10.85200023651123,-4.447000026702881 C10.85200023651123,-6.840000152587891 9.473999977111816,-8.145000457763672 6.718999862670898,-9.232999801635742 C4.4710001945495605,-10.102999687194824 3.4800000190734863,-10.85200023651123 3.4800000190734863,-12.375 C3.4800000190734863,-13.487000465393066 4.326000213623047,-14.815999984741211 6.550000190734863,-14.815999984741211 C8.02400016784668,-14.815999984741211 9.112000465393066,-14.357000350952148 9.619999885559082,-14.043000221252441 C9.619999885559082,-14.043000221252441 10.199999809265137,-15.758999824523926 10.199999809265137,-15.758999824523926 C9.49899959564209,-16.170000076293945 8.267000198364258,-16.555999755859375 6.623000144958496,-16.555999755859375 C3.4570000171661377,-16.555999755859375 1.3539999723434448,-14.670999526977539 1.3539999723434448,-12.133000373840332 C1.3539999723434448,-9.861000061035156 2.996999979019165,-8.460000038146973 5.656000137329102,-7.493000030517578 C7.855000019073486,-6.671000003814697 8.725000381469727,-5.7769999504089355 8.725000381469727,-4.2779998779296875 C8.725000381469727,-2.609999895095825 7.4679999351501465,-1.4989999532699585 5.316999912261963,-1.4989999532699585 C3.867000102996826,-1.4989999532699585 2.5139999389648438,-1.9579999446868896 1.5709999799728394,-2.562000036239624 C1.5709999799728394,-2.562000036239624 1.0149999856948853,-0.7979999780654907 1.0149999856948853,-0.7979999780654907z"></path></g></g><g transform="matrix(1,0,0,1,148,129)" opacity="1" style="display: block;"><g opacity="1" transform="matrix(1,0,0,1,3,50)"><path fill="rgb(255,255,255)" fill-opacity="1" d=" M0.5,-51.2296142578125 C0.5,-51.2296142578125 0.5,26.637306213378906 0.5,26.637306213378906 C0.5,26.637306213378906 -0.5,26.637306213378906 -0.5,26.637306213378906 C-0.5,26.637306213378906 -0.5,-51.2296142578125 -0.5,-51.2296142578125 C-0.5,-51.2296142578125 0.5,-51.2296142578125 0.5,-51.2296142578125z"></path><path stroke-linecap="round" stroke-linejoin="miter" fill-opacity="0" stroke-miterlimit="4" stroke="rgb(255,255,255)" stroke-opacity="1" stroke-width="0" d=" M0.5,-51.2296142578125 C0.5,-51.2296142578125 0.5,26.637306213378906 0.5,26.637306213378906 C0.5,26.637306213378906 -0.5,26.637306213378906 -0.5,26.637306213378906 C-0.5,26.637306213378906 -0.5,-51.2296142578125 -0.5,-51.2296142578125 C-0.5,-51.2296142578125 0.5,-51.2296142578125 0.5,-51.2296142578125z"></path></g></g></g></svg>