<svg width="56" height="56" viewBox="0 0 56 56" fill="none" xmlns="http://www.w3.org/2000/svg">
<path d="M10.119 28C6.73905 28 3.99902 22.6274 3.99902 16C3.99902 9.37258 6.73905 4 10.119 4H21.879M10.119 28H21.879M10.119 28H15.999M21.879 4C25.259 4 27.9991 9.37258 27.9991 16M21.879 4C18.499 4 15.759 9.37258 15.759 16C15.759 22.6274 18.499 28 21.879 28M21.879 28C25.259 28 27.9991 22.6274 27.9991 16M21.879 28H15.999M15.999 28C22.6265 28 27.9991 30.74 27.9991 34.12M15.999 28C9.37162 28 3.99902 30.74 3.99902 34.12M27.9991 16V10.12M27.9991 16V21.88M27.9991 10.12C27.9991 6.74001 33.3716 4 39.9991 4C46.6264 4 51.999 6.74001 51.999 10.12V21.88M27.9991 10.12V21.88M27.9991 21.88C27.9991 18.5001 33.3716 15.76 39.9991 15.76C46.6264 15.76 51.999 18.5001 51.999 21.88M27.9991 21.88C27.9991 25.2589 33.3684 27.9984 39.9931 28M27.9991 45.88C27.9991 49.2599 22.6265 52 15.999 52C9.37162 52 3.99902 49.2599 3.99902 45.88V34.12M27.9991 45.88V34.12M27.9991 45.88V40M3.99902 34.12C3.99902 37.4999 9.37162 40.24 15.999 40.24C22.6265 40.24 27.9991 37.4999 27.9991 34.12M27.9991 34.12V40M27.9991 40C27.9991 33.3726 30.7391 28 34.1191 28M27.9991 40C27.9991 46.6274 30.739 52 34.1191 52M51.999 21.88C51.999 25.2589 46.6297 27.9984 40.005 28M39.9931 28H34.1191M39.9931 28H40.005M39.9931 28C39.9951 28 39.9971 28 39.9991 28C40.001 28 40.003 28 40.005 28M40.005 28H45.8791C49.259 28 51.999 33.3726 51.999 40C51.999 46.6275 49.259 52 45.8791 52H34.1191M34.1191 28C37.499 28 40.239 33.3726 40.239 40C40.239 46.6275 37.499 52 34.1191 52" stroke="#525252" stroke-width="1.16667" stroke-linejoin="round"/>
</svg>
