<svg width="48" height="54" viewBox="0 0 48 54" fill="none" xmlns="http://www.w3.org/2000/svg">
<path d="M23.8969 1.00012L46.8969 14.0001M23.8969 1.00012L0.896973 14.0001M23.8969 1.00012V53.0001M23.8969 1.00012L31.5637 14.0001M23.8969 1.00012L16.2303 14.0001M46.8969 14.0001V40.0001M46.8969 14.0001L0.896973 40.0001M46.8969 14.0001H31.5637M46.8969 14.0001L39.2303 27.0002M0.896973 14.0001L46.8969 40.0001M0.896973 14.0001V40.0001M0.896973 14.0001L8.56364 27.0002M0.896973 14.0001H16.2303M23.8969 53.0001L46.8969 40.0001M23.8969 53.0001L0.896973 40.0001M23.8969 53.0001L31.5637 40.0001M23.8969 53.0001L16.2303 40.0001M31.5637 14.0001L39.2303 27.0002M31.5637 14.0001H16.2303M16.2303 14.0001L8.56364 27.0002M46.8969 40.0001L39.2303 27.0002M46.8969 40.0001H31.5637M0.896973 40.0001H16.2303M0.896973 40.0001L8.56364 27.0002M39.2303 27.0002L31.5637 40.0001M31.5637 40.0001H16.2303M16.2303 40.0001L8.56364 27.0002" stroke="#525252" stroke-width="1.16667" stroke-linejoin="round"/>
</svg>
