<svg width="38" height="36" viewBox="0 0 38 36" fill="none" xmlns="http://www.w3.org/2000/svg">
<path d="M23.1993 0.938668L19.1943 3.50845L15.2969 1.80332C15.201 1.76141 15.0962 1.74377 14.9919 1.75196C14.8875 1.76016 14.7868 1.79392 14.6986 1.85028L6.11747 7.35635C6.02949 7.41304 5.95682 7.49053 5.90589 7.58197C5.85496 7.67341 5.82734 7.77599 5.82546 7.88064L5.74869 12.1358L1.74638 14.7038C1.03518 15.1602 0.534381 15.8804 0.354165 16.7059C0.173949 17.5315 0.329076 18.3949 0.78542 19.1061L10.421 34.1231C10.8774 34.8343 11.5976 35.3351 12.4231 35.5153C13.2487 35.6955 14.1121 35.5404 14.8233 35.0841L36.2762 21.3189C36.9874 20.8626 37.4882 20.1424 37.6684 19.3168C37.8486 18.4912 37.6935 17.6279 37.2371 16.9167L27.6015 1.89963C27.1452 1.18843 26.425 0.68763 25.5994 0.507415C24.7738 0.327198 23.9105 0.482325 23.1993 0.938668ZM36.1645 17.6049C36.4383 18.0316 36.5314 18.5496 36.4232 19.045C36.3151 19.5403 36.0146 19.9725 35.5879 20.2463L14.135 34.0114C13.7083 34.2852 13.1903 34.3783 12.6949 34.2702C12.1996 34.162 11.7675 33.8616 11.4937 33.4348L1.85806 18.4178C1.58426 17.9911 1.49118 17.4731 1.59931 16.9777C1.70744 16.4824 2.00792 16.0503 2.43464 15.7765L6.72522 13.0234C6.81358 12.9668 6.88658 12.8893 6.93776 12.7977C6.98893 12.706 7.01669 12.6032 7.01857 12.4983L7.09132 8.24574L15.0986 3.1079L18.9973 4.81217C19.0935 4.85419 19.1985 4.87181 19.3031 4.86346C19.4077 4.85512 19.5087 4.82107 19.5969 4.76435L23.8875 2.01131C24.3142 1.73751 24.8323 1.64443 25.3276 1.75256C25.823 1.86069 26.2551 2.16117 26.5289 2.58789L36.1645 17.6049ZM15.2259 12.1118C14.1651 12.7924 13.33 13.7723 12.8262 14.9276C12.3223 16.0828 12.1724 17.3615 12.3953 18.602C12.6181 19.8424 13.2039 20.9889 14.0783 21.8965C14.9528 22.8041 16.0768 23.432 17.3081 23.7008C18.5395 23.9696 19.8229 23.8672 20.996 23.4066C22.1691 22.946 23.1794 22.1478 23.8989 21.1131C24.6184 20.0783 25.015 18.8535 25.0384 17.5934C25.0618 16.3333 24.711 15.0945 24.0304 14.0338C23.1177 12.6113 21.6773 11.6097 20.0262 11.2493C18.375 10.8889 16.6483 11.1991 15.2259 12.1118ZM21.4202 21.7656C20.5716 22.3101 19.5806 22.5908 18.5725 22.572C17.5644 22.5533 16.5845 22.2361 15.7567 21.6604C14.9289 21.0848 14.2904 20.2766 13.9219 19.3381C13.5534 18.3996 13.4715 17.3729 13.6866 16.3878C13.9016 15.4028 14.4039 14.5036 15.13 13.804C15.856 13.1044 16.7732 12.6358 17.7656 12.4575C18.758 12.2792 19.7809 12.3992 20.7051 12.8023C21.6293 13.2053 22.4132 13.8734 22.9577 14.722C23.6879 15.8599 23.9361 17.2413 23.6477 18.5623C23.3594 19.8832 22.5581 21.0355 21.4202 21.7656Z" fill="#9C9C9C"/>
</svg>
