<svg width="30" height="22" viewBox="0 0 30 22" fill="none" xmlns="http://www.w3.org/2000/svg">
<path d="M14.0343 20.7443C13.9836 20.9472 13.8665 21.1272 13.7018 21.2559C13.537 21.3846 13.334 21.4545 13.1249 21.4545C13.0459 21.4549 12.9672 21.4454 12.8905 21.4264L9.14052 20.4889C9.03612 20.4627 8.93701 20.4187 8.84755 20.3588L6.03505 18.4838C5.82821 18.3458 5.68466 18.1313 5.63599 17.8875C5.58731 17.6436 5.63748 17.3904 5.77548 17.1836C5.91348 16.9768 6.12799 16.8332 6.37182 16.7845C6.61565 16.7359 6.86884 16.786 7.07568 16.924L9.75224 18.7088L13.3452 19.6076C13.4653 19.6367 13.5784 19.6893 13.678 19.7622C13.7777 19.8352 13.862 19.9271 13.926 20.0328C13.9901 20.1384 14.0326 20.2556 14.0512 20.3778C14.0697 20.4999 14.064 20.6245 14.0343 20.7443ZM29.5839 9.44044C29.507 9.67409 29.3845 9.89019 29.2236 10.0762C29.0627 10.2623 28.8665 10.4146 28.6464 10.5244L25.8714 11.9119L19.4167 18.3678C19.3021 18.4822 19.1599 18.5651 19.0038 18.6082C18.8477 18.6513 18.6831 18.6533 18.5261 18.6139L11.0261 16.7389C10.912 16.7102 10.8043 16.6606 10.7085 16.5924L4.20224 11.9471L1.35693 10.5244C0.912241 10.3021 0.574044 9.91233 0.416699 9.44073C0.259354 8.96914 0.295742 8.45436 0.517863 8.00958L3.42997 2.18654C3.65227 1.74185 4.04207 1.40366 4.51367 1.24631C4.98526 1.08896 5.50004 1.12535 5.94482 1.34747L8.52997 2.63654L14.7409 0.862318C14.9094 0.814123 15.088 0.814123 15.2565 0.862318L21.4675 2.63654L24.0526 1.34747C24.4974 1.12535 25.0122 1.08896 25.4838 1.24631C25.9554 1.40366 26.3452 1.74185 26.5675 2.18654L29.4796 8.00958C29.5907 8.22936 29.6571 8.46898 29.675 8.71457C29.6929 8.96017 29.6619 9.20688 29.5839 9.44044ZM24.1722 10.9568L20.9835 4.57951H17.2546L12.1874 9.50138C13.671 10.4494 15.9972 10.7108 18.0843 8.60724C18.2473 8.44294 18.4653 8.34474 18.6963 8.33155C18.9274 8.31835 19.1552 8.39109 19.3358 8.53576L23.3683 11.7666L24.1722 10.9568ZM2.19482 8.84747L4.26786 9.88458L7.17997 4.06154L5.10693 3.02443L2.19482 8.84747ZM22.0311 13.0943L18.7839 10.494C16.494 12.369 13.5866 12.6162 11.1772 11.0799C10.9402 10.9291 10.7401 10.7271 10.5917 10.4886C10.4433 10.2501 10.3503 9.98132 10.3198 9.7021C10.2892 9.42289 10.3217 9.14036 10.4149 8.8754C10.5082 8.61044 10.6598 8.36981 10.8585 8.1713C10.8613 8.16789 10.8644 8.16475 10.8679 8.16193L16.1249 3.0631L14.9999 2.74201L9.0913 4.43068L5.88388 10.8444L11.6495 14.9635L18.4628 16.6662L22.0311 13.0943ZM27.8015 8.84747L24.8929 3.02443L22.8198 4.06154L25.7319 9.88458L27.8015 8.84747Z" fill="#FF7A3B"/>
</svg>
