<svg width="22" height="22" viewBox="0 0 22 22" fill="none" xmlns="http://www.w3.org/2000/svg">
<path d="M14.7498 7.89136H20.3748C20.5603 7.89151 20.7417 7.8366 20.896 7.7336C21.0503 7.6306 21.1706 7.48413 21.2416 7.31273C21.3126 7.14133 21.3312 6.95272 21.2949 6.77076C21.2587 6.58881 21.1693 6.4217 21.038 6.29058L15.413 0.665582C15.2819 0.534321 15.1148 0.444914 14.9329 0.40868C14.7509 0.372445 14.5623 0.391012 14.3909 0.46203C14.2195 0.533048 14.073 0.653323 13.97 0.80763C13.867 0.961937 13.8121 1.14334 13.8123 1.32886V6.95386C13.8123 7.2025 13.911 7.44096 14.0868 7.61678C14.2627 7.79259 14.5011 7.89136 14.7498 7.89136ZM15.6873 3.59175L18.1119 6.01636H15.6873V3.59175ZM7.24976 13.5164H1.62476C1.43923 13.5162 1.25784 13.5711 1.10353 13.6741C0.949222 13.7771 0.828946 13.9236 0.757928 14.095C0.68691 14.2664 0.668343 14.455 0.704578 14.637C0.740813 14.8189 0.83022 14.986 0.96148 15.1171L6.58648 20.7421C6.71759 20.8734 6.88471 20.9628 7.06666 20.999C7.24862 21.0353 7.43723 21.0167 7.60863 20.9457C7.78002 20.8747 7.9265 20.7544 8.0295 20.6001C8.1325 20.4458 8.18741 20.2644 8.18726 20.0789V14.4539C8.18726 14.2052 8.08849 13.9668 7.91267 13.7909C7.73686 13.6151 7.4984 13.5164 7.24976 13.5164ZM6.31226 17.816L3.88765 15.3914H6.31226V17.816ZM20.3748 13.5164H14.7498C14.5011 13.5164 14.2627 13.6151 14.0868 13.7909C13.911 13.9668 13.8123 14.2052 13.8123 14.4539V20.0789C13.8121 20.2644 13.867 20.4458 13.97 20.6001C14.073 20.7544 14.2195 20.8747 14.3909 20.9457C14.5623 21.0167 14.7509 21.0353 14.9329 20.999C15.1148 20.9628 15.2819 20.8734 15.413 20.7421L21.038 15.1171C21.1693 14.986 21.2587 14.8189 21.2949 14.637C21.3312 14.455 21.3126 14.2664 21.2416 14.095C21.1706 13.9236 21.0503 13.7771 20.896 13.6741C20.7417 13.5711 20.5603 13.5162 20.3748 13.5164ZM15.6873 17.816V15.3914H18.1119L15.6873 17.816ZM7.60836 0.462848C7.43707 0.391787 7.24856 0.373119 7.06667 0.409206C6.88477 0.445293 6.71766 0.534513 6.58648 0.665582L0.96148 6.29058C0.83022 6.4217 0.740813 6.58881 0.704578 6.77076C0.668343 6.95272 0.68691 7.14133 0.757928 7.31273C0.828946 7.48413 0.949222 7.6306 1.10353 7.7336C1.25784 7.8366 1.43923 7.89151 1.62476 7.89136H7.24976C7.4984 7.89136 7.73686 7.79259 7.91267 7.61678C8.08849 7.44096 8.18726 7.2025 8.18726 6.95386V1.32886C8.18722 1.14344 8.1322 0.9622 8.02916 0.808051C7.92611 0.653902 7.77967 0.53377 7.60836 0.462848ZM6.31226 6.01636H3.88765L6.31226 3.59175V6.01636Z" fill="#FF7A3B"/>
</svg>
