<svg width="18" height="17" viewBox="0 0 18 17" fill="none" xmlns="http://www.w3.org/2000/svg">
<path d="M4.5498 3.375V0.875C4.5498 0.70924 4.61565 0.550268 4.73286 0.433058C4.85007 0.315848 5.00904 0.25 5.1748 0.25C5.34057 0.25 5.49954 0.315848 5.61675 0.433058C5.73396 0.550268 5.7998 0.70924 5.7998 0.875V3.375C5.7998 3.54076 5.73396 3.69973 5.61675 3.81694C5.49954 3.93415 5.34057 4 5.1748 4C5.00904 4 4.85007 3.93415 4.73286 3.81694C4.61565 3.69973 4.5498 3.54076 4.5498 3.375ZM7.6748 4C7.84057 4 7.99954 3.93415 8.11675 3.81694C8.23396 3.69973 8.2998 3.54076 8.2998 3.375V0.875C8.2998 0.70924 8.23396 0.550268 8.11675 0.433058C7.99954 0.315848 7.84057 0.25 7.6748 0.25C7.50904 0.25 7.35007 0.315848 7.23286 0.433058C7.11565 0.550268 7.0498 0.70924 7.0498 0.875V3.375C7.0498 3.54076 7.11565 3.69973 7.23286 3.81694C7.35007 3.93415 7.50904 4 7.6748 4ZM10.1748 4C10.3406 4 10.4995 3.93415 10.6167 3.81694C10.734 3.69973 10.7998 3.54076 10.7998 3.375V0.875C10.7998 0.70924 10.734 0.550268 10.6167 0.433058C10.4995 0.315848 10.3406 0.25 10.1748 0.25C10.009 0.25 9.85007 0.315848 9.73286 0.433058C9.61565 0.550268 9.5498 0.70924 9.5498 0.875V3.375C9.5498 3.54076 9.61565 3.69973 9.73286 3.81694C9.85007 3.93415 10.009 4 10.1748 4ZM17.6748 8.375V9C17.6746 9.79496 17.3714 10.5599 16.8269 11.1392C16.2825 11.7185 15.5378 12.0685 14.7443 12.118C14.318 13.3239 13.5922 14.4016 12.635 15.25H14.5498C14.7156 15.25 14.8745 15.3158 14.9917 15.4331C15.109 15.5503 15.1748 15.7092 15.1748 15.875C15.1748 16.0408 15.109 16.1997 14.9917 16.3169C14.8745 16.4342 14.7156 16.5 14.5498 16.5H0.799805C0.634044 16.5 0.475073 16.4342 0.357863 16.3169C0.240653 16.1997 0.174805 16.0408 0.174805 15.875C0.174805 15.7092 0.240653 15.5503 0.357863 15.4331C0.475073 15.3158 0.634044 15.25 0.799805 15.25H2.71699C1.91957 14.5455 1.28066 13.6799 0.842444 12.7102C0.404227 11.7406 0.176673 10.6891 0.174805 9.625V5.875C0.174805 5.70924 0.240653 5.55027 0.357863 5.43306C0.475073 5.31585 0.634044 5.25 0.799805 5.25H14.5498C15.3786 5.25 16.1735 5.57924 16.7595 6.16529C17.3456 6.75134 17.6748 7.5462 17.6748 8.375ZM13.9248 6.5H1.4248V9.625C1.42721 10.7985 1.75885 11.9478 2.38199 12.9422C3.00514 13.9365 3.8948 14.7361 4.9498 15.25H10.3998C11.4548 14.7361 12.3445 13.9365 12.9676 12.9422C13.5908 11.9478 13.9224 10.7985 13.9248 9.625V6.5ZM16.4248 8.375C16.4247 7.98736 16.3044 7.60928 16.0806 7.29281C15.8567 6.97634 15.5403 6.73703 15.1748 6.60781V9.625C15.1743 10.0175 15.143 10.4093 15.0811 10.7969C15.4688 10.6823 15.8092 10.4454 16.0514 10.1216C16.2935 9.7978 16.4245 9.40436 16.4248 9V8.375Z" fill="#FED56D"/>
</svg>
