<svg width="56" height="56" viewBox="0 0 56 56" fill="none" xmlns="http://www.w3.org/2000/svg">
<path d="M38.6211 28C38.6211 41.2549 33.8658 52 27.9998 52C22.1338 52 17.3784 41.2549 17.3784 28C17.3784 14.7452 22.1338 4 27.9998 4C33.8658 4 38.6211 14.7452 38.6211 28Z" stroke="#525252" stroke-width="1.16667" stroke-linejoin="round"/>
<path d="M33.3101 36.9569C21.5221 43.5844 9.58846 44.9467 6.65546 39.9997C3.72246 35.0528 10.9008 25.6699 22.6888 19.0425C34.4768 12.415 46.4105 11.0528 49.3435 15.9997C52.2765 20.9466 45.0981 30.3295 33.3101 36.9569Z" stroke="#525252" stroke-width="1.16667" stroke-linejoin="round"/>
<path d="M33.3101 19.0424C45.0981 25.6699 52.2765 35.0528 49.3435 39.9997C46.4105 44.9467 34.4768 43.5844 22.6888 36.9569C10.9008 30.3296 3.72246 20.9466 6.65546 15.9997C9.58846 11.0528 21.5221 12.415 33.3101 19.0424Z" stroke="#525252" stroke-width="1.16667" stroke-linejoin="round"/>
</svg>
