<svg width="130" height="89" viewBox="0 0 130 89" fill="none" xmlns="http://www.w3.org/2000/svg">
<g clip-path="url(#clip0_1_62)">
<path d="M128.526 34.8853L131.674 38.0556C131.784 38.1429 131.866 38.2611 131.908 38.395C131.972 39.1749 131.381 39.2179 130.778 39.2617C130.517 39.2805 130.254 39.2994 130.04 39.3786C128.982 39.6646 128.037 40.2696 127.334 41.1115C126.631 41.9533 126.205 42.9911 126.113 44.0838C126.045 44.2102 125.942 44.3143 125.817 44.3833C125.691 44.4524 125.548 44.4836 125.405 44.4731C125.239 44.4583 125.084 44.3857 124.966 44.2679L123.933 43.227C123.94 43.2986 123.94 43.3695 123.94 43.4261V44.1125C123.94 44.1555 123.942 44.1977 123.937 44.2392C123.93 44.2909 123.909 44.3399 123.877 44.381V44.4451C123.877 44.4776 123.881 44.5077 123.885 44.5387C123.892 44.6013 123.9 44.6661 123.877 44.7559C123.854 44.8404 123.852 44.9384 123.849 45.0267C123.849 45.0733 123.847 45.1199 123.842 45.1662C123.834 45.2213 123.834 45.2794 123.83 45.3382C123.827 45.3936 123.814 45.448 123.792 45.4989C123.762 45.5651 123.746 45.6367 123.744 45.7093C123.742 45.7425 123.742 45.7765 123.742 45.8104L123.7 46.0299L122.094 53.6859L121.966 54.2592L121.917 55.0941L121.209 58.7094L121.096 59.2759H63.8307L63.5554 58.9998L63.5056 59.2412H57.3785L53.9684 55.8092L54.2935 54.2592H52.3693L51.173 53.0493C49.689 54.1299 47.8928 54.6964 46.0574 54.6627C44.0843 54.7403 42.1608 54.0329 40.708 52.6955L38.8472 50.8204L38.4437 52.7023C38.3946 52.9716 38.3305 53.2258 38.2596 53.4739L38.1963 53.7078L38.0907 54.0472C38.0816 54.0766 38.0695 54.1049 38.0545 54.1317C37.9489 54.444 37.8244 54.7487 37.6796 55.0444C37.6834 55.0559 37.6834 55.0683 37.6796 55.0798C37.6612 55.119 37.64 55.1568 37.6162 55.193C37.5091 55.4042 37.3915 55.6101 37.2617 55.8085C37.2383 55.8447 37.2165 55.8831 37.1984 55.9216L37.1207 56.0068C36.9472 56.255 36.7586 56.4911 36.5549 56.7144C36.4999 56.769 36.4436 56.8223 36.386 56.8743C36.3279 56.9271 36.2691 56.9799 36.208 57.0327L36.0518 57.1813C35.8731 57.33 35.6868 57.4695 35.4937 57.5991C34.0352 58.4631 32.3528 58.8743 30.6602 58.7803C28.3257 58.7803 26.4573 58.1015 25.2754 56.9127L21.9497 53.566C20.6214 54.3176 19.1175 54.7033 17.5915 54.6838C15.6241 54.7446 13.7121 54.0275 12.27 52.688L10.4091 50.8136L9.80798 53.707L9.68729 54.2803H3.42446L0 50.8279L0.177257 49.9929L3.94114 31.9142L4.05429 31.3485H10.3375L10.5004 31.5039V31.3485H52.8354L52.9908 31.5039V31.3485H59.1186L62.5431 34.8016L62.3734 35.629L62.1893 36.5342H63.9514L64.2274 36.811C65.0028 36.3566 65.8835 36.1127 66.7822 36.1035C67.4429 36.0904 68.0991 36.2159 68.7083 36.4718C69.3176 36.7278 69.8666 37.1085 70.3198 37.5894L70.2278 37.4831L71.8902 39.1599C72.9025 37.2568 75.1736 36.1035 78.2587 36.1035C80.6505 36.1035 82.4125 36.7114 83.4806 37.8157L84.6837 39.0256L85.0872 37.0795L85.2071 36.5138H91.3417L93.097 38.2758L93.3444 37.0871L93.465 36.5214H105.537L105.862 36.8457C106.68 36.3635 107.616 36.1187 108.565 36.1389C109.136 36.1167 109.705 36.2212 110.231 36.445C110.757 36.6688 111.227 37.0063 111.607 37.4333L111.55 37.3669C111.517 37.3265 111.482 37.2875 111.446 37.25L112.06 37.8655C112.596 37.3108 113.24 36.8714 113.951 36.5743C114.663 36.2773 115.428 36.1289 116.199 36.1382C116.607 36.1131 117.016 36.1477 117.414 36.2408L116.745 35.5657C116.676 35.4928 116.624 35.4062 116.592 35.3116C116.559 35.217 116.547 35.1167 116.556 35.0171C116.566 34.9176 116.596 34.8211 116.645 34.7342C116.695 34.6472 116.762 34.5717 116.843 34.5127C116.95 34.4335 117.078 34.3864 117.211 34.3769H117.749C117.894 34.3626 118.038 34.3415 118.181 34.3128C118.933 34.155 119.641 33.8319 120.252 33.367C120.864 32.902 121.365 32.3069 121.719 31.6245C121.75 31.5717 121.778 31.5173 121.804 31.4616V31.4262C122.047 30.902 122.195 30.3389 122.243 29.763C122.255 29.584 122.335 29.4163 122.466 29.2942C122.598 29.172 122.771 29.1044 122.95 29.1052H123.007C123.114 29.1156 123.218 29.1503 123.31 29.2068C123.402 29.2632 123.48 29.34 123.538 29.4311C124.047 29.9259 126.877 32.8058 126.877 32.8058C127.113 33.0592 127.096 33.3888 127.078 33.7215C127.066 33.9281 127.055 34.1356 127.103 34.3272C127.356 34.3722 127.612 34.396 127.868 34.3981C128.015 34.401 128.157 34.4496 128.275 34.5371C128.393 34.6245 128.48 34.7458 128.526 34.8853Z" fill="black"/>
<path d="M32.386 37.2128H36.8582L34.3532 49.0928C33.8931 51.3436 33.0159 52.6312 31.6853 53.5439C30.3401 54.3247 28.7955 54.6939 27.2425 54.6059C24.2842 54.6059 21.4466 53.3674 21.1638 50.36H25.6638C25.8056 51.0676 26.4566 51.4711 27.447 51.4711C28.7843 51.4711 29.4006 50.664 29.6759 49.3976L29.9452 48.0889H29.8456C29.4507 48.5229 28.9718 48.8722 28.4378 49.1154C27.9039 49.3587 27.3261 49.4908 26.7394 49.5039C24.1356 49.5039 22.0697 47.4304 22.1119 44.3951C22.1685 40.8575 24.4751 36.838 28.3461 36.838C29.0795 36.7889 29.8116 36.9508 30.4558 37.3046C31.1001 37.6585 31.6296 38.1894 31.9817 38.8345H32.0602L32.3853 37.2143L32.386 37.2128ZM28.5437 46.1851C30.2635 46.1851 31.2184 44.2043 31.247 42.4989C31.247 41.3599 30.8013 40.1923 29.485 40.1923C27.6876 40.1923 26.7749 42.1949 26.747 43.9139C26.747 45.0748 27.192 46.1851 28.5082 46.1851M78.7474 46.5675C78.7474 47.3248 78.0957 47.6288 77.2396 47.6288C75.8246 47.6288 75.3509 46.9212 75.3434 45.9309H70.8931C70.8154 49.6239 74.1124 50.5373 77.042 50.5373C80.7848 50.5373 83.2121 48.9163 83.2618 45.6827C83.2618 43.1 81.0608 42.3148 78.896 41.8125C77.2328 41.4308 76.5042 41.1547 76.511 40.5249C76.5185 39.8951 77.2615 39.6401 77.9901 39.6401C78.9028 39.6401 79.5251 39.966 79.5892 40.801H83.9128C83.863 37.7159 81.082 36.81 78.2519 36.81C74.8123 36.81 72.1308 38.3737 72.0894 41.3312C72.0894 43.659 73.6598 44.5151 76.0297 45.1238C77.5511 45.5273 78.761 45.6548 78.7474 46.5675ZM111.812 39.1302H111.735C111.542 38.4335 111.117 37.8235 110.53 37.4015C109.943 36.9795 109.23 36.7708 108.508 36.81C106.584 36.81 105.409 37.765 104.298 39.2087H104.22L104.631 37.2128H100.13L97.4341 50.1051H102.14L103.555 43.1498C103.88 41.6352 104.652 40.5739 105.82 40.5739C106.987 40.5739 107.143 41.5085 106.902 42.6475L105.345 50.1051H110.05L111.466 43.1498C111.791 41.5364 112.563 40.5739 113.73 40.5739C114.897 40.5739 115.053 41.4587 114.813 42.6475L113.256 50.1051H117.961L119.646 42.4415C120.353 39.2087 119.271 36.7814 116.165 36.7814C115.3 36.7779 114.449 36.9911 113.689 37.4016C112.929 37.8121 112.283 38.4067 111.812 39.131V39.1302ZM0.862915 50.1058H5.72504L9.48138 32.0264H4.62756L0.863669 50.1051L0.862915 50.1058ZM15.4961 36.8319C18.7795 36.8319 21.9135 38.6294 21.8645 42.698C21.8223 47.1483 18.7938 50.4815 14.1655 50.4815C10.9817 50.4815 7.79782 48.7119 7.85439 44.6644C7.93208 40.3197 10.9183 36.8319 15.4961 36.8319ZM14.3005 47.3255C16.3733 47.3255 17.1306 44.3182 17.1306 42.5494C17.1306 41.2822 16.7414 40.0444 15.3761 40.0444C13.3245 40.0444 12.623 43.2283 12.623 44.8703C12.623 46.1858 12.9911 47.3255 14.3284 47.3255M11.1031 32.0264L10.3948 35.6424H51.216L51.9235 32.0264H11.1016H11.1031ZM43.9349 36.8312C47.2175 36.8312 50.3524 38.6286 50.3033 42.6972C50.2603 47.1475 47.2251 50.4807 42.5975 50.4807C39.4129 50.4807 36.2291 48.7112 36.2925 44.6637C36.392 40.319 39.3775 36.8312 43.9349 36.8312ZM42.7597 47.3248C44.834 47.3248 45.5905 44.3175 45.5905 42.5487C45.5905 41.2815 45.1938 40.0437 43.8285 40.0437C41.7837 40.0437 41.0754 43.2275 41.0754 44.8696C41.0754 46.1851 41.4442 47.3248 42.7884 47.3248M53.5928 32.0264L52.8845 35.6424H57.5837L58.2912 32.0264H53.5928ZM49.8281 50.1051H54.5334L57.2292 37.2136H52.496L49.8281 50.1051ZM64.8429 50.5373C64.094 50.5903 63.3452 50.4336 62.6804 50.0848C62.0155 49.736 61.461 49.2089 61.0791 48.5626H61.0006L59.5856 55.0871H54.8238L58.645 37.2128H63.1164L62.7626 38.9326C63.2297 38.2975 63.8347 37.7766 64.5321 37.409C65.2294 37.0413 66.0011 36.8366 66.789 36.81C69.6191 36.81 71.2823 39.2366 71.2325 42.3925C71.1691 46.3623 69.1099 50.5373 64.815 50.5373H64.8429ZM64.6589 40.4608C62.8411 40.4608 61.7225 42.7893 61.6945 44.5792C61.6945 45.8245 62.1328 47.2116 63.6255 47.2116C65.5716 47.2116 66.3711 44.6358 66.3922 42.916C66.3922 41.7491 66.0528 40.4608 64.6589 40.4608ZM91.866 48.0746H91.9437L91.5333 50.1194H96.0047L98.7013 37.2272H94.0029L92.5026 44.4306C92.1986 45.9241 91.2784 46.7085 90.1183 46.7085C88.9575 46.7085 88.7025 45.6194 88.9363 44.4804L90.4577 37.2272H85.7593L84.0961 45.1879C83.3886 48.6546 85.002 50.523 87.7053 50.523C88.5542 50.5147 89.3859 50.2827 90.1164 49.8503C90.8469 49.4179 91.4504 48.8004 91.866 48.0602V48.0746ZM117.105 55.1505L117.813 51.5345H62.0129L61.3053 55.1505H117.105Z" fill="white"/>
<path d="M122.164 40.7505C122.094 40.7454 122.027 40.7195 121.972 40.676C121.917 40.6326 121.876 40.5737 121.855 40.5069C121.841 40.4623 121.835 40.4154 121.839 40.3688C121.898 39.7386 121.823 39.1031 121.619 38.5039C121.415 37.9047 121.087 37.3553 120.656 36.8916C120.225 36.428 119.701 36.0608 119.119 35.8138C118.536 35.5668 117.908 35.4457 117.275 35.4584C117.181 35.4584 117.091 35.4212 117.025 35.3548C116.958 35.2885 116.921 35.1985 116.921 35.1047C116.921 35.0108 116.958 34.9209 117.025 34.8545C117.091 34.7882 117.181 34.7509 117.275 34.7509C117.445 34.7615 117.615 34.7615 117.785 34.7509C119.042 34.6171 120.213 34.0493 121.096 33.1452C121.979 32.241 122.52 31.0572 122.624 29.7975C122.632 29.7089 122.672 29.6263 122.738 29.5661C122.803 29.5059 122.889 29.4725 122.978 29.4724C123.025 29.4757 123.07 29.4883 123.112 29.5093C123.153 29.5304 123.19 29.5595 123.221 29.5951C123.251 29.6306 123.274 29.6718 123.288 29.7162C123.303 29.7607 123.308 29.8076 123.304 29.8541C123.245 30.4837 123.32 31.1185 123.523 31.7173C123.727 32.316 124.054 32.8652 124.484 33.3291C124.914 33.7922 125.437 34.1594 126.019 34.4069C126.601 34.6543 127.228 34.7764 127.86 34.7652C127.93 34.7656 127.998 34.7866 128.056 34.8255C128.114 34.8644 128.159 34.9194 128.186 34.9839C128.213 35.0483 128.22 35.1191 128.206 35.1876C128.193 35.256 128.16 35.319 128.111 35.3687C128.045 35.4352 127.954 35.4726 127.86 35.4728C126.516 35.4951 125.228 36.013 124.242 36.927C123.256 37.841 122.642 39.0868 122.519 40.4254C122.511 40.5143 122.471 40.5972 122.405 40.6575C122.339 40.7179 122.253 40.7514 122.164 40.7512V40.7505Z" fill="white"/>
</g>
<defs>
<clipPath id="clip0_1_62">
<rect width="132" height="30.1714" fill="white" transform="translate(0 29.1042)"/>
</clipPath>
</defs>
</svg>
