<svg width="132" height="89" viewBox="0 0 132 89" fill="none" xmlns="http://www.w3.org/2000/svg">
<g clip-path="url(#clip0_1_30)">
<path d="M23.23 35.58H25.23V49.5H31.23V51.5H23.23V35.58ZM37.46 35.58C39.0513 35.58 40.5774 36.2121 41.7026 37.3374C42.8279 38.4626 43.46 39.9887 43.46 41.58C43.46 43.1713 42.8279 44.6974 41.7026 45.8226C40.5774 46.9479 39.0513 47.58 37.46 47.58C35.8687 47.58 34.3426 46.9479 33.2174 45.8226C32.0921 44.6974 31.46 43.1713 31.46 41.58C31.46 39.9887 32.0921 38.4626 33.2174 37.3374C34.3426 36.2121 35.8687 35.58 37.46 35.58ZM37.46 45.58C38.2511 45.58 39.0245 45.3454 39.6823 44.9059C40.3401 44.4664 40.8528 43.8416 41.1555 43.1107C41.4583 42.3798 41.5375 41.5756 41.3831 40.7996C41.2288 40.0237 40.8478 39.311 40.2884 38.7516C39.729 38.1922 39.0163 37.8112 38.2404 37.6569C37.4644 37.5025 36.6602 37.5817 35.9293 37.8845C35.1984 38.1872 34.5736 38.6999 34.1341 39.3577C33.6946 40.0155 33.46 40.7889 33.46 41.58C33.4653 42.6374 33.889 43.6497 34.6386 44.3955C35.3882 45.1413 36.4026 45.56 37.46 45.56V45.58ZM33.46 49.52H41.46V51.52H33.46V49.52ZM59.06 51.52H57.06V50.09C55.7702 50.9928 54.2344 51.478 52.66 51.48C51.3175 51.489 49.9943 51.16 48.8124 50.5233C47.6304 49.8865 46.6277 48.9626 45.8967 47.8366C45.1656 46.7106 44.7296 45.4187 44.629 44.08C44.5283 42.7412 44.7662 41.3986 45.3207 40.176C45.8752 38.9533 46.7285 37.8899 47.8019 37.0836C48.8754 36.2773 50.1345 35.7541 51.4633 35.5623C52.792 35.3704 54.1477 35.5161 55.4054 35.9858C56.663 36.4555 57.7823 37.2341 58.66 38.25L57.19 39.56C56.5224 38.8142 55.6788 38.2472 54.736 37.9108C53.7932 37.5745 52.7812 37.4794 51.7923 37.6342C50.8033 37.789 49.8688 38.1888 49.0739 38.7972C48.2791 39.4056 47.6491 40.2033 47.2413 41.1175C46.8336 42.0317 46.6611 43.0333 46.7396 44.0313C46.818 45.0292 47.145 45.9916 47.6906 46.8308C48.2362 47.6701 48.9831 48.3594 49.8633 48.8361C50.7435 49.3128 51.729 49.5617 52.73 49.56C53.561 49.5617 54.3826 49.3839 55.1386 49.0387C55.8945 48.6935 56.567 48.1891 57.11 47.56H51.71V45.56H59.08L59.06 51.52ZM66.42 35.62C67.6067 35.62 68.7667 35.9719 69.7534 36.6312C70.7401 37.2905 71.5092 38.2275 71.9633 39.3239C72.4174 40.4203 72.5362 41.6267 72.3047 42.7905C72.0732 43.9544 71.5018 45.0235 70.6626 45.8626C69.8235 46.7018 68.7544 47.2732 67.5905 47.5047C66.4267 47.7362 65.2203 47.6174 64.1239 47.1633C63.0275 46.7092 62.0905 45.9401 61.4312 44.9534C60.7719 43.9667 60.42 42.8067 60.42 41.62C60.4147 40.827 60.5667 40.0409 60.8671 39.307C61.1675 38.5731 61.6104 37.906 62.1702 37.3444C62.73 36.7827 63.3956 36.3376 64.1285 36.0347C64.8614 35.7319 65.647 35.5773 66.44 35.58L66.42 35.62ZM66.42 45.62C67.2111 45.62 67.9845 45.3854 68.6423 44.9459C69.3001 44.5064 69.8128 43.8816 70.1155 43.1507C70.4183 42.4198 70.4975 41.6156 70.3431 40.8396C70.1888 40.0637 69.8078 39.351 69.2484 38.7916C68.689 38.2322 67.9763 37.8512 67.2004 37.6969C66.4244 37.5425 65.6202 37.6217 64.8893 37.9245C64.1584 38.2272 63.5336 38.7399 63.0941 39.3977C62.6546 40.0555 62.42 40.8289 62.42 41.62C62.4358 42.6739 62.8669 43.679 63.6197 44.4168C64.3724 45.1545 65.386 45.5654 66.44 45.56L66.42 45.62ZM62.42 49.56H70.42V51.56H62.42V49.56ZM74.55 35.58H76.55V51.48H74.55V35.58ZM79.32 35.58H81.32C81.423 35.57 81.527 35.57 81.63 35.58C82.4676 35.4891 83.315 35.5757 84.1169 35.834C84.9188 36.0924 85.6574 36.5167 86.2844 37.0794C86.9115 37.6421 87.413 38.3306 87.7564 39.1C88.0997 39.8694 88.2771 40.7025 88.2771 41.545C88.2771 42.3875 88.0997 43.2206 87.7564 43.99C87.413 44.7594 86.9115 45.4479 86.2844 46.0106C85.6574 46.5733 84.9188 46.9976 84.1169 47.256C83.315 47.5143 82.4676 47.6009 81.63 47.51H81.32V51.51H79.32V35.58ZM81.32 37.58V45.49H81.63C82.1949 45.5652 82.7693 45.5189 83.3149 45.3541C83.8604 45.1892 84.3644 44.9097 84.7931 44.5343C85.2219 44.1589 85.5654 43.6962 85.8008 43.1772C86.0362 42.6582 86.158 42.0949 86.158 41.525C86.158 40.9551 86.0362 40.3918 85.8008 39.8728C85.5654 39.3538 85.2219 38.8911 84.7931 38.5157C84.3644 38.1403 83.8604 37.8608 83.3149 37.6959C82.7693 37.5311 82.1949 37.4848 81.63 37.56C81.521 37.5713 81.4137 37.5948 81.31 37.63L81.32 37.58ZM95.73 36.73L94.25 37.9C93.9947 37.6332 93.6685 37.4448 93.3098 37.357C92.9511 37.2692 92.5748 37.2856 92.2251 37.4043C91.8753 37.5229 91.5668 37.7389 91.3356 38.0269C91.1044 38.3149 90.9602 38.6629 90.92 39.03V39.19C90.92 40.07 91.53 40.66 92.72 40.74C97.3 41.02 99.4 43.17 99.4 46.01V46.19C99.2818 47.314 98.8431 48.3804 98.1363 49.2624C97.4295 50.1444 96.4842 50.8047 95.413 51.165C94.3417 51.5252 93.1895 51.5702 92.0934 51.2946C90.9973 51.0189 90.0034 50.4342 89.23 49.61L90.76 48.43C91.1161 48.8117 91.551 49.1113 92.0345 49.3082C92.518 49.505 93.0385 49.5944 93.56 49.57C94.5232 49.6208 95.4687 49.2975 96.1992 48.6677C96.9296 48.0378 97.3885 47.1501 97.48 46.19V46.05C97.48 43.38 94.86 42.89 92.59 42.67C90.49 42.47 88.98 41.16 88.98 39.27V39.19C89.0541 38.206 89.5031 37.288 90.2344 36.6256C90.9657 35.9631 91.9235 35.6067 92.91 35.63C93.4328 35.6146 93.9529 35.7089 94.437 35.907C94.921 36.1051 95.3581 36.4025 95.72 36.78L95.73 36.73ZM107.23 49.45C109.72 49.45 111.69 46.76 111.69 43.45V35.45H113.69V43.45C113.69 47.85 110.81 51.4 107.27 51.4C103.73 51.4 100.85 47.85 100.85 43.45V35.45H102.85V43.45C102.77 46.81 104.74 49.5 107.22 49.5L107.23 49.45ZM129.04 51.45H127.04V41.55L122.43 47.55L117.82 41.55V51.48H115.82V35.58L122.42 44.27L129.02 35.58L129.04 51.45ZM13.63 33.19C13.63 31.7472 13.0569 30.3635 12.0367 29.3433C11.0165 28.3231 9.63278 27.75 8.19 27.75C6.74722 27.75 5.36354 28.3231 4.34334 29.3433C3.32314 30.3635 2.75 31.7472 2.75 33.19V49.64L7.23 52.85V60.67H9.15V52.85L13.63 49.64V33.19ZM11.71 42.39L9.15 44.95V42.55L11.71 39.99V42.39ZM4.71 39.99L7.27 42.55V44.95L4.71 42.39V39.99ZM11.71 37.27L8.19 40.79L4.67 37.19V34.79L8.19 38.31L11.71 34.79V37.27ZM8.19 29.67C8.96415 29.6734 9.71583 29.9305 10.3299 30.4019C10.944 30.8733 11.3866 31.533 11.59 32.28L8.19 35.67L4.79 32.28C4.98594 31.5256 5.42537 30.857 6.04013 30.3778C6.65489 29.8987 7.41059 29.6358 8.19 29.63V29.67ZM4.67 48.67V45.07L7.23 47.63V50.49L4.67 48.67ZM9.15 50.5V47.63L11.71 45.07V48.66L9.15 50.5Z" fill="#CCCCCC"/>
</g>
<defs>
<clipPath id="clip0_1_30">
<rect width="132" height="88" fill="white" transform="translate(0 0.189941)"/>
</clipPath>
</defs>
</svg>
