<svg width="132" height="89" viewBox="0 0 132 89" fill="none" xmlns="http://www.w3.org/2000/svg">
<g clip-path="url(#clip0_1_38)">
<path d="M119.526 73.9608V74.1101C119.489 74.1945 119.445 74.2755 119.394 74.3521L119.205 74.5752L119.015 74.7434C118.817 74.9085 118.593 75.0401 118.352 75.1331H118.258C118.022 75.2258 117.774 75.2761 117.519 75.2824H109.953C109.752 75.2884 109.552 75.2518 109.366 75.1749C109.18 75.0979 109.013 74.9825 108.875 74.8361L100.608 66.4258L95.1783 74.5375L95.0651 74.6868L94.8766 74.9099H94.5528C94.4008 75.0378 94.2281 75.1387 94.0421 75.2085L93.8536 75.3012C93.616 75.3866 93.3671 75.4363 93.115 75.4489H85.5486C85.3475 75.4552 85.1474 75.4186 84.9616 75.3417C84.7757 75.2648 84.6084 75.1492 84.4706 75.0026L81.6514 71.8221L71.7388 75.3012C71.5064 75.4037 71.2543 75.4541 71.0003 75.4489C70.6577 75.4591 70.3226 75.3478 70.0543 75.1346L69.9034 74.9838L65.1734 69.6629C64.9848 70.2962 64.8324 70.9279 64.625 71.5235L64.5118 71.7844C64.4792 71.8707 64.4348 71.9521 64.3799 72.0264L64.2651 72.1756L64.0577 72.3988L63.7921 72.6408C63.646 72.7508 63.4873 72.8451 63.3207 72.9189L62.7707 73.5884C62.5114 73.6858 62.2364 73.7345 61.9583 73.7376H55.7511C55.5516 73.7471 55.3524 73.7139 55.1668 73.6402C54.9811 73.5664 54.8134 73.454 54.6747 73.3102L52.6318 71.0034L51.7408 73.9058C51.7197 74.0044 51.6814 74.0985 51.6277 74.1839L51.5146 74.4259L51.4014 74.5752L51.2128 74.7984C51.1331 74.8887 51.0435 74.9699 50.9457 75.0404C50.7888 75.1446 50.625 75.238 50.4554 75.3201L50.2087 75.4489C49.9554 75.5489 49.6872 75.6058 49.4151 75.6171H38.1778C37.9734 75.6261 37.7695 75.5909 37.5799 75.5139C37.3903 75.4368 37.2196 75.3198 37.0794 75.1708L35.4357 73.3086H29.4769L29.3433 73.7549C29.3209 73.851 29.2893 73.9446 29.249 74.0346C29.1979 74.1112 29.1537 74.1922 29.117 74.2766L29.0039 74.4244L28.8153 74.6475C28.7355 74.7379 28.6459 74.819 28.5481 74.8895C28.3912 74.9936 28.2274 75.0871 28.0578 75.1692L27.8111 75.2996C27.5597 75.3986 27.2894 75.4568 27.0176 75.4662H19.998C19.797 75.4723 19.5969 75.4356 19.4111 75.3587C19.2253 75.2818 19.0579 75.1663 18.92 75.0199L16.7451 72.5826H10.2551C10.0554 72.5923 9.85584 72.5592 9.66992 72.4855C9.484 72.4118 9.31598 72.2992 9.17714 72.1552L0.340993 62.7408C0.411785 62.8113 0.494863 62.8683 0.586136 62.9089C0.423485 62.8137 0.287329 62.6791 0.190136 62.5176C0.0657882 62.2792 0.000854492 62.0142 0.000854492 61.7453C0.000854492 61.4763 0.0657882 61.2114 0.190136 60.9729C5.18252 50.8889 9.27826 40.3854 12.43 29.5836V29.4532L11.8046 28.7461C11.8046 28.7461 11.8989 28.7461 11.957 28.8765C11.7495 28.6885 11.6026 28.443 11.5352 28.1713C11.4677 27.8995 11.4827 27.6138 11.5783 27.3506L13.64 20.5401C13.8139 20.0244 14.1385 19.5728 14.5718 19.2436C15.0056 18.9121 15.5304 18.7156 16.0804 18.6795H23.6484L24.8773 14.6236C25.0517 14.1114 25.377 13.6604 25.8107 13.3288C26.246 12.9988 26.7693 12.8008 27.3193 12.7631H34.3938C34.6032 12.7556 34.8115 12.7971 35.0019 12.8844C35.1924 12.9718 35.3597 13.1024 35.4907 13.2659L37.9123 16.0002L38.1008 15.4974C38.2737 14.9788 38.599 14.5246 39.0374 14.1931C39.4774 13.8599 40.0086 13.6666 40.5617 13.6368H65.5521C65.7609 13.6336 65.9677 13.6771 66.1574 13.7641C66.3472 13.8511 66.5151 13.9794 66.649 14.1396L74.217 22.7165L74.085 15.5728C74.0951 15.2568 74.1709 14.9463 74.3075 14.6611C74.4441 14.376 74.6386 14.1224 74.8786 13.9165C75.3388 13.447 75.9626 13.1734 76.6197 13.1528H84.1861C84.4272 13.1464 84.6657 13.2032 84.878 13.3177C85.0903 13.4321 85.2689 13.6001 85.3961 13.8049C85.3633 13.7302 85.3188 13.6612 85.2641 13.6006L90.9401 19.9445L91.905 16.7624C92.0731 16.2469 92.3953 15.7912 92.8321 15.4596C93.2695 15.1266 93.7966 14.9323 94.3454 14.9018H121.966C122.177 14.8935 122.386 14.9327 122.579 15.0165C122.773 15.1003 122.944 15.2265 123.082 15.3858L131.709 25.1176L131.822 25.2481C131.915 25.3875 131.974 25.5469 131.994 25.7132V25.8075C132.002 25.9426 132.002 26.0794 131.994 26.2161C132 26.3207 132 26.4257 131.994 26.5304L123.31 54.9842L123.195 55.2624L123.063 55.5044C123.063 55.5044 123.063 55.5986 122.95 55.6536L122.762 55.8768L122.477 56.1188C122.326 56.2288 122.155 56.3042 122.004 56.3969C121.853 56.4912 121.834 56.5101 121.757 56.5274C121.501 56.6374 121.225 56.6955 120.945 56.6955H117.161L118.655 58.3706V58.4995C118.751 58.6724 118.809 58.8625 118.825 59.0589L119.658 73.0886V73.7204C119.658 73.8508 119.526 73.9058 119.526 73.9608Z" fill="black"/>
<path d="M2.04286 61.3265C7.09075 51.1269 11.2373 40.5055 14.4351 29.5837H20.3186C17.2058 40.4784 13.1938 51.0958 8.32386 61.3265H2.04286ZM40.0683 15.4612L38.0066 22.1964H62.9609L65.0226 15.4612H40.0683ZM20.9251 61.9787H27.9636C32.3719 54.679 35.8722 46.8682 38.3869 38.7199H32.1247C29.5186 46.9443 25.734 54.7474 20.889 61.8859L20.9251 61.9787ZM33.2027 28.9315L31.1222 35.7798H43.0603L36.4572 57.4561H32.1436L30.063 64.2478H41.3003L49.9651 35.7798H61.5623L63.6617 28.9315H33.2027ZM27.907 34.3467L30.0253 27.4057H34.3939L36.476 20.5967H32.1436L34.0356 14.6975H26.8274L24.9354 20.5967H15.5697L13.4891 27.4057H22.9491L11.7857 64.2855H18.8053L25.3896 42.6627L27.8661 45.0638L30.3836 36.8028L27.9039 34.3467H27.907ZM50.9866 38.9431C51.1675 46.8271 50.069 54.6883 47.7337 62.2207H53.9566C56.3056 54.6779 57.5795 46.8415 57.7406 38.9431H50.9866ZM83.7697 14.9584H76.109L76.3164 26.8478H83.9976L83.7697 14.9584ZM67.7459 30.5689L65.5333 37.8635H70.8117L62.7707 64.2855L76.3353 59.5225L78.8134 51.3542L73.403 53.2148L80.3079 30.5517L67.7459 30.5689ZM84.9436 64.2478L94.3077 50.2369H86.7397L77.2813 64.2478H84.9436ZM93.9086 16.7262L85.1871 45.3058H112.808L121.511 16.7262H93.9086ZM107.758 38.1794H94.6094L98.9607 23.8338H112.203L107.833 38.1809M100.604 50.1819L101.437 64.1928H109.005L108.155 50.1819H100.604Z" fill="white"/>
</g>
<defs>
<clipPath id="clip0_1_38">
<rect width="132" height="62.8571" fill="white" transform="translate(0 12.7615)"/>
</clipPath>
</defs>
</svg>
