<svg width="132" height="89" viewBox="0 0 132 89" fill="none" xmlns="http://www.w3.org/2000/svg">
<g clip-path="url(#clip0_1_46)">
<path d="M43.9279 35.9157H40.8774V49.6803H49.322V46.9833H43.9279V35.9157ZM49.6133 45.0118C49.6133 47.9498 51.5856 49.9034 54.5611 49.9034C57.5188 49.9034 59.4911 47.9507 59.4911 45.0118C59.4911 42.0729 57.5188 40.1005 54.562 40.1005C51.5856 40.1005 49.6133 42.0729 49.6133 45.0118ZM52.4968 44.993C52.4968 43.5981 53.3152 42.6681 54.562 42.6681C55.7892 42.6681 56.6076 43.5981 56.6076 44.993C56.6076 46.4067 55.79 47.3367 54.5611 47.3367C53.3152 47.3367 52.4968 46.4067 52.4968 44.993ZM59.9518 44.8627C59.9518 47.6714 61.7743 49.5688 64.3598 49.5688C65.6066 49.5688 66.6847 49.1225 67.2246 48.3969V49.6803C67.2246 50.9637 66.4241 51.8196 65.0104 51.8196C63.7466 51.8196 62.872 51.2243 62.8167 50.164H59.9144C60.175 52.7121 62.1465 54.4238 64.8435 54.4238C68.0243 54.4238 70.0332 52.3586 70.0332 49.085V40.3799H67.4477L67.2987 41.3286C66.7784 40.5655 65.6806 40.0639 64.416 40.0639C61.8118 40.0639 59.9518 42.0167 59.9518 44.8627ZM62.8533 44.7887C62.8533 43.4491 63.7466 42.5566 64.881 42.5566C66.201 42.5566 67.1693 43.4303 67.1693 44.7878C67.1693 46.1461 66.2206 47.0761 64.8997 47.0761C63.7654 47.0761 62.8533 46.1461 62.8533 44.7887ZM70.8687 45.0118C70.8687 47.9498 72.8402 49.9034 75.8165 49.9034C78.7742 49.9034 80.7457 47.9507 80.7457 45.0118C80.7457 42.0729 78.7742 40.1005 75.8165 40.1005C72.8402 40.1005 70.8687 42.0729 70.8687 45.0118ZM73.7514 44.993C73.7514 43.5981 74.5698 42.6681 75.8165 42.6681C77.0437 42.6681 77.8621 43.5981 77.8621 44.993C77.8621 46.4067 77.0446 47.3367 75.8165 47.3367C74.5698 47.3367 73.7514 46.4067 73.7514 44.993ZM83.2154 38.9287C84.1078 38.9287 84.8334 38.204 84.8334 37.2919C84.8334 36.3807 84.1078 35.6738 83.2154 35.6738C82.3041 35.6738 81.5786 36.3807 81.5786 37.2919C81.5786 38.2031 82.3041 38.9287 83.2154 38.9287ZM81.7634 49.6803H84.6469V40.3807H81.7634V49.6803ZM86.3263 54.1453H89.1537V48.7504C89.6927 49.4572 90.9207 49.9409 92.2041 49.9409C94.9753 49.9409 96.6496 47.8204 96.5755 44.8815C96.5005 41.8864 94.7709 40.0826 92.1854 40.0826C90.8645 40.0826 89.6186 40.6592 89.0975 41.5142L88.9484 40.3799H86.3263V54.1453ZM89.209 45.0305C89.209 43.6356 90.139 42.7056 91.4786 42.7056C92.836 42.7056 93.6919 43.6535 93.6919 45.0305C93.6919 46.4067 92.836 47.3554 91.4786 47.3554C90.139 47.3554 89.209 46.4255 89.209 45.0305ZM96.8803 46.7414C96.9544 48.6201 98.443 49.9222 100.787 49.9222C103.037 49.9222 104.6 48.7316 104.6 46.8155C104.6 45.4393 103.782 44.5281 102.256 44.1559L100.601 43.7471C100.006 43.5981 99.6336 43.4491 99.6336 42.9654C99.6336 42.4816 100.024 42.1648 100.601 42.1648C101.252 42.1648 101.679 42.5932 101.661 43.2259H104.247C104.172 41.2911 102.703 40.0826 100.656 40.0826C98.5921 40.0826 97.0481 41.3098 97.0481 43.1697C97.0481 44.4165 97.7362 45.4393 99.5774 45.923L101.214 46.3505C101.698 46.4808 101.902 46.7039 101.902 47.0207C101.902 47.4857 101.475 47.7829 100.749 47.7829C99.9121 47.7829 99.4658 47.3929 99.4658 46.7414H96.8803ZM108.984 49.9222C110.12 49.9222 111.254 49.401 111.83 48.6388L112.017 49.6803H114.714V40.3807H111.849V45.2162C111.849 46.6111 111.44 47.3742 110.12 47.3742C109.096 47.3742 108.427 46.9092 108.427 45.1787V40.3799H105.562V46.2202C105.562 48.4344 106.79 49.9222 108.984 49.9222ZM119.256 49.6803V44.6022C119.256 43.0394 120.094 42.5932 120.912 42.5932C121.823 42.5932 122.419 43.1519 122.419 44.3049V49.6803H125.246V44.6022C125.246 43.0216 126.064 42.5753 126.883 42.5753C127.794 42.5753 128.408 43.1331 128.408 44.3041V49.6803H131.199V43.5981C131.199 41.4776 130.082 40.0639 127.682 40.0639C126.344 40.0639 125.246 40.7145 124.762 41.7194C124.204 40.7145 123.237 40.0639 121.693 40.0639C120.67 40.0639 119.721 40.5289 119.164 41.2732L119.052 40.3799H116.373V49.6803H119.256ZM0 44.19C0 36.161 0 32.1465 2.49437 29.6521C4.98875 27.1577 9.00325 27.1577 17.0323 27.1577C25.0613 27.1577 29.0758 27.1577 31.5701 29.6521C34.0645 32.1465 34.0645 36.161 34.0645 44.19C34.0645 52.219 34.0645 56.2335 31.5701 58.7279C29.0758 61.2222 25.0613 61.2222 17.0323 61.2222C9.00325 61.2222 4.98875 61.2222 2.49437 58.7279C0 56.2335 0 52.219 0 44.19Z" fill="#CCCCCC"/>
<path d="M20.4387 49.2997C20.9088 49.2997 21.2988 49.6847 21.2052 50.1454C21.0097 51.1079 20.4875 51.9733 19.727 52.5949C18.9665 53.2165 18.0145 53.5561 17.0323 53.5561C16.05 53.5561 15.098 53.2165 14.3375 52.5949C13.577 51.9733 13.0548 51.1079 12.8594 50.1454C12.7657 49.6855 13.1557 49.2997 13.6258 49.2997H20.4387ZM22.2288 42.2961C21.7749 42.4178 21.4964 42.893 21.7263 43.3035C22.0765 43.9271 22.614 44.4247 23.2627 44.7257C23.9115 45.0268 24.6385 45.116 25.3408 44.9808C26.043 44.8455 26.6849 44.4927 27.1755 43.9723C27.666 43.4518 27.9803 42.7902 28.0738 42.0812C28.1673 41.3721 28.0353 40.6517 27.6965 40.0219C27.3576 39.392 26.8292 38.8848 26.186 38.5722C25.5428 38.2595 24.8175 38.1572 24.1129 38.2797C23.4083 38.4023 22.7602 38.7435 22.2603 39.2549C21.9316 39.5913 22.0772 40.1227 22.4843 40.3578L22.916 40.6073C23.5735 40.9863 23.444 41.9707 22.7117 42.1675L22.2288 42.2961ZM11.8357 42.2961C12.2896 42.4178 12.5681 42.893 12.3382 43.3035C11.9879 43.9271 11.4503 44.4245 10.8015 44.7255C10.1527 45.0264 9.42565 45.1155 8.7234 44.9801C8.02115 44.8447 7.37932 44.4917 6.88888 43.9712C6.39844 43.4507 6.08427 42.789 5.9909 42.0799C5.89754 41.3709 6.0297 40.6504 6.36868 40.0207C6.70765 39.3909 7.23623 38.8838 7.8795 38.5713C8.52277 38.2587 9.24809 38.1566 9.95266 38.2793C10.6572 38.402 11.3053 38.7433 11.8051 39.2549C12.1338 39.5913 11.9873 40.1227 11.5802 40.3578L11.1485 40.6073C10.491 40.9863 10.6205 41.9707 11.3537 42.1675L11.8357 42.2961Z" fill="black"/>
</g>
<defs>
<clipPath id="clip0_1_46">
<rect width="132" height="34.0645" fill="white" transform="translate(0 27.1577)"/>
</clipPath>
</defs>
</svg>
