<svg width="132" height="89" viewBox="0 0 132 89" fill="none" xmlns="http://www.w3.org/2000/svg">
<g clip-path="url(#clip0_1_22)">
<g clip-path="url(#clip1_1_22)">
<path d="M131.989 33.6042C132.003 33.5026 132.003 33.3996 131.989 33.298C132.002 33.2148 132.002 33.1301 131.989 33.0468L131.012 25.8785C130.871 25.0205 130.494 24.2188 129.923 23.563L129.754 23.3668L129.448 23.0607L112.519 8.50034L112.994 8.97518C112.605 8.51052 112.118 8.13887 111.566 7.88759C111.015 7.63631 110.415 7.51178 109.809 7.52318H104.669C103.834 7.50704 103.017 7.77246 102.351 8.27668C101.652 7.77593 100.81 7.5125 99.9497 7.52501H94.809C94.1351 7.51401 93.4703 7.68094 92.8816 8.00894C92.2929 8.33693 91.8011 8.81441 91.4558 9.39318C90.9241 10.2182 90.7262 11.2155 90.8967 12.1817L91.5383 16.7008C91.113 16.46 90.6319 16.3349 90.1431 16.3378H65.2538C64.3606 16.3434 63.4876 16.6049 62.7385 17.0913C62.0143 17.5442 61.4331 18.1913 61.0628 18.9613L59.1342 17.315C58.3753 16.6143 57.3747 16.2345 56.342 16.2553H17.2883C16.3927 16.2715 15.5169 16.5211 14.7473 16.9795C13.6943 17.5943 12.9222 18.5952 12.595 19.7698L0.192485 61.1922C-0.039447 61.8748 -0.0623216 62.6111 0.126791 63.3068C0.315903 64.0025 0.708392 64.6259 1.25398 65.0972C1.39515 65.2163 1.54548 65.3282 1.70132 65.4308C1.70132 65.4308 1.45015 65.264 1.30898 65.1247L18.238 79.7125C18.953 80.3725 19.8917 80.7392 20.8633 80.7447H60.225C61.1233 80.7217 61.9997 80.4624 62.766 79.993C63.1996 79.7561 63.5877 79.4438 63.9118 79.0709L64.0511 78.8765L64.2748 78.5979L64.4435 78.2898L66.286 79.8793C66.9923 80.5119 67.9081 80.86 68.8563 80.8565H108.3C108.995 80.8339 109.678 80.6744 110.311 80.3872C110.943 80.1 111.513 79.6906 111.987 79.1827L112.128 78.9883L112.35 78.7078C112.469 78.5318 112.574 78.3448 112.658 78.1505C112.75 77.9818 112.823 77.804 112.882 77.6207L124.195 39.7972V39.4617C124.209 39.3319 124.209 39.201 124.195 39.0712V38.82C124.209 38.7368 124.209 38.652 124.195 38.5688C124.208 38.3925 124.208 38.2154 124.195 38.039H127.827C128.143 38.0683 128.462 38.0683 128.777 38.039H129.028C129.233 37.9785 129.431 37.8942 129.615 37.7878H129.895L130.398 37.3973L130.621 37.2323L131.012 36.7282V36.5613L131.29 36.0865C131.275 35.9943 131.275 35.9001 131.29 35.8078C131.276 35.7626 131.276 35.7138 131.29 35.6685C131.351 35.5035 131.397 35.3385 131.432 35.1662C131.419 35.1113 131.419 35.0542 131.432 34.9993C131.418 34.9162 131.418 34.8314 131.432 34.7482C131.432 34.7482 131.989 33.661 131.989 33.6042Z" fill="black"/>
<path d="M57.4878 19.4343C57.6359 19.5681 57.7393 19.744 57.7842 19.9384C57.8292 20.1328 57.8134 20.3363 57.739 20.5215L45.364 61.9182C45.2074 62.3696 44.8885 62.7466 44.4693 62.976C44.128 63.2039 43.733 63.3385 43.3235 63.3665H3.99118C3.65576 63.3502 3.33801 63.2112 3.09835 62.976C2.95574 62.8444 2.85552 62.6734 2.81047 62.4847C2.76541 62.296 2.77755 62.0981 2.84535 61.9163L15.2497 20.5215C15.3927 20.064 15.7013 19.6763 16.115 19.4343C16.4633 19.2235 16.8557 19.0988 17.2608 19.0713H56.5932C56.9266 19.0745 57.2465 19.2042 57.4878 19.4343ZM36.9545 53.5765L44.3575 28.8632H23.6298L16.2543 53.5765H36.9545ZM95.0308 19.8523C95.1652 20.0085 95.333 20.1323 95.5219 20.2146C95.7108 20.2968 95.9158 20.3353 96.1217 20.3272H101.233C101.428 20.3287 101.619 20.2806 101.79 20.1876C101.961 20.0946 102.106 19.9597 102.21 19.7955C102.301 19.6676 102.365 19.5229 102.399 19.3699C102.432 19.2168 102.435 19.0586 102.406 18.9045L101.402 11.54C101.305 11.199 101.133 10.8843 100.898 10.6197C100.763 10.4642 100.595 10.3409 100.407 10.259C100.218 10.1771 100.014 10.1387 99.8085 10.1467H94.6972C94.5024 10.1447 94.3104 10.1922 94.1391 10.2849C93.9679 10.3776 93.823 10.5124 93.7182 10.6765C93.5238 11.067 93.4395 11.3182 93.5238 11.54L94.556 18.9045C94.611 19.2638 94.7742 19.5957 95.0308 19.8523ZM111.261 11.485C111.166 11.1442 110.994 10.8296 110.759 10.5647C110.63 10.4093 110.468 10.2856 110.284 10.2033C110.1 10.1209 109.899 10.0821 109.698 10.0898H104.557C104.365 10.0847 104.176 10.1314 104.009 10.225C103.842 10.3185 103.703 10.4555 103.607 10.6215C103.422 10.868 103.342 11.1777 103.384 11.4832L104.418 18.8495C104.482 19.2033 104.647 19.5333 104.894 19.7973C105.031 19.95 105.198 20.0715 105.386 20.1535C105.574 20.2354 105.777 20.2759 105.981 20.2722H111.122C111.313 20.2746 111.501 20.2268 111.668 20.1335C111.835 20.0402 111.974 19.9046 112.072 19.7405C112.169 19.6159 112.236 19.4713 112.27 19.3171C112.304 19.163 112.303 19.0033 112.268 18.8495L111.261 11.485ZM90.5337 22.6427L90.0313 19.0163H65.2538C64.8643 19.0376 64.4876 19.163 64.163 19.3793C63.9574 19.4913 63.7786 19.6464 63.6387 19.8341C63.4988 20.0218 63.4012 20.2375 63.3527 20.4665L61.2865 27.3837C61.2036 27.5567 61.1752 27.7508 61.205 27.9403C61.2348 28.1299 61.3214 28.3059 61.4533 28.4452C61.6898 28.6652 61.996 28.7935 62.3205 28.8063H92.433L85.03 53.5215H55C54.613 53.5306 54.236 53.6467 53.911 53.857C53.5157 54.1075 53.2271 54.4954 53.1007 54.946L51.007 61.8632C50.9385 62.0405 50.9203 62.2334 50.9546 62.4204C50.9889 62.6074 51.0743 62.7813 51.2013 62.9228C51.4298 63.1591 51.7402 63.2988 52.0685 63.3133H91.5127C91.9197 63.2767 92.3138 63.1447 92.6567 62.9228C93.0693 62.6919 93.3792 62.3133 93.5238 61.8632L104.865 24.0397H92.0993C91.8966 24.0437 91.6951 24.0061 91.5075 23.9292C91.3199 23.8522 91.15 23.7376 91.0085 23.5923C90.7776 23.3394 90.6143 23.0323 90.5337 22.6995V22.6445V22.6427Z" fill="white"/>
</g>
</g>
<defs>
<clipPath id="clip0_1_22">
<rect width="132" height="88" fill="white" transform="translate(0 0.189941)"/>
</clipPath>
<clipPath id="clip1_1_22">
<rect width="132" height="73.3333" fill="white" transform="translate(0 7.52319)"/>
</clipPath>
</defs>
</svg>
