<svg width="20" height="28" viewBox="0 0 20 28" fill="none" xmlns="http://www.w3.org/2000/svg">
<path d="M10.0308 19.3922C9.83659 19.1805 9.70958 18.9449 9.64981 18.6852C9.58483 18.4038 9.59751 18.1324 9.68785 17.8711C9.76188 17.6567 9.88051 17.4661 10.0437 17.2992C10.2428 17.0957 10.4807 16.9634 10.7576 16.9022C11.1599 16.8137 11.5336 16.8773 11.8786 17.0931C12.0713 17.2138 12.2265 17.3657 12.3442 17.5489C12.4586 17.727 12.5299 17.9258 12.5582 18.1452C12.579 18.308 12.5747 18.4708 12.5453 18.6336C12.5168 18.7914 12.4609 18.9417 12.3779 19.0845C12.137 19.4998 11.7637 19.7479 11.2582 19.829C11.2475 19.8307 11.238 19.8366 11.2317 19.8453C10.7067 20.5625 10.1657 21.2675 9.60872 21.9603C9.05652 22.647 8.47874 23.3114 7.87538 23.9535C7.31322 24.5516 6.71291 25.1087 6.07445 25.6246C5.65832 25.9609 5.2285 26.2528 4.78498 26.5005C4.55903 26.6266 4.31202 26.7401 4.04396 26.8411C3.75552 26.9498 3.45961 27.0185 3.15623 27.0473C2.91896 27.0699 2.69358 27.0633 2.48008 27.0276C2.02275 26.9513 1.62643 26.7614 1.29113 26.458C0.865942 26.0729 0.553279 25.6017 0.353139 25.0443C0.246277 24.747 0.168847 24.4665 0.12085 24.2027C0.0207798 23.6532 -0.0171429 23.1293 0.00708218 22.631C0.0224776 22.3127 0.0585889 21.9604 0.115416 21.5742C0.122887 21.5226 0.157301 21.2988 0.218656 20.9028C0.443474 19.4486 0.764739 18.0162 1.18245 16.6054C1.2952 16.2253 1.3595 16.0082 1.37535 15.9541C1.85442 14.3253 2.42439 12.7287 3.08526 11.1643C3.5075 10.1647 3.98136 9.1904 4.50684 8.24132C4.96757 7.40929 5.47709 6.60839 6.0354 5.83862C6.55205 5.1259 7.11704 4.45394 7.73036 3.82272C8.42225 3.11023 9.17833 2.47393 9.99858 1.91381C10.3866 1.64869 10.7959 1.42195 11.2263 1.23358C11.5278 1.10159 11.8039 1.01182 12.0545 0.964274C12.2017 0.936426 12.3799 0.932011 12.5891 0.951029C12.7338 0.964161 12.8644 1.00695 12.981 1.0794C13.0765 1.13872 13.1707 1.23324 13.2635 1.36297C13.3512 1.48545 13.4264 1.61575 13.4894 1.75385C13.7355 2.29428 13.8413 2.85598 13.8069 3.43897C13.801 3.53949 13.7749 3.76431 13.7285 4.11343C13.671 4.54563 13.6026 5.00432 13.5233 5.4895C13.4613 5.86963 13.3663 6.23482 13.2384 6.58507C13.1655 6.78498 13.116 6.9086 13.09 6.95591C13.0221 7.0793 12.928 7.17824 12.8078 7.25273C12.6896 7.32631 12.5756 7.37068 12.4658 7.38585C12.3316 7.40442 12.2065 7.37159 12.0905 7.28737C11.9477 7.18345 11.9038 7.03617 11.9588 6.84554C12.0523 6.52156 12.1457 6.19758 12.239 5.87359C12.3035 5.649 12.3593 5.42962 12.4064 5.21544C12.472 4.91659 12.536 4.6174 12.5983 4.31787C12.615 4.23749 12.6281 4.15644 12.6376 4.07471C12.6383 4.06792 12.6501 3.98709 12.673 3.83223C12.6895 3.72084 12.6896 3.60923 12.6733 3.49738C12.6516 3.34547 12.6405 3.26804 12.64 3.26509C12.626 3.14487 12.6037 3.0259 12.5731 2.90817C12.5018 2.63513 12.3479 2.46997 12.1113 2.41269C11.9802 2.38076 11.8135 2.39163 11.6114 2.44529C11.2312 2.54626 10.8632 2.72263 10.5073 2.97439C10.1152 3.25151 9.76086 3.57074 9.44435 3.93208C9.27115 4.12973 9.09739 4.32681 8.92306 4.52333C8.57077 4.92021 8.23886 5.33328 7.92733 5.76254C7.76795 5.98216 7.63347 6.16418 7.52389 6.30863C6.39482 7.79745 5.42955 9.38737 4.62808 11.0784C3.7879 12.8509 3.10439 14.7031 2.57755 16.635C2.48223 16.9841 2.40831 17.2738 2.35579 17.504C2.19776 18.1968 2.03146 18.8877 1.85691 19.5766C1.7788 19.8859 1.72593 20.106 1.69831 20.2368C1.56519 20.8687 1.48595 21.5082 1.46059 22.1552C1.44202 22.6298 1.46376 23.1025 1.52579 23.5734C1.56406 23.8655 1.63798 24.1598 1.74755 24.4564C1.8474 24.7272 1.98731 24.9664 2.16731 25.174C2.45506 25.5059 2.81323 25.6573 3.24181 25.628C3.49697 25.6106 3.75858 25.5361 4.02664 25.4046C4.49937 25.1727 4.94199 24.893 5.35449 24.5654C5.72715 24.2697 6.08351 23.9554 6.42357 23.6223C6.79555 23.2578 7.15406 22.8806 7.49909 22.4908C8.37957 21.4964 9.22383 20.4723 10.0319 19.4184C10.0348 19.4146 10.0363 19.4099 10.0361 19.4051C10.0359 19.4003 10.0341 19.3958 10.0308 19.3922ZM11.554 18.2458C11.5519 18.1356 11.5061 18.0307 11.4267 17.9543C11.3472 17.8778 11.2407 17.8361 11.1304 17.8382L11.0483 17.8398C10.9937 17.8408 10.9399 17.8526 10.8898 17.8744C10.8398 17.8963 10.7946 17.9278 10.7567 17.9671C10.7189 18.0065 10.6892 18.0529 10.6692 18.1037C10.6493 18.1545 10.6396 18.2088 10.6407 18.2633L10.6424 18.355C10.6445 18.4652 10.6904 18.5701 10.7698 18.6465C10.8492 18.723 10.9558 18.7647 11.066 18.7626L11.1482 18.761C11.2027 18.76 11.2566 18.7482 11.3066 18.7264C11.3566 18.7045 11.4019 18.673 11.4397 18.6337C11.4776 18.5943 11.5073 18.5479 11.5272 18.4971C11.5471 18.4463 11.5568 18.392 11.5558 18.3375L11.554 18.2458Z" fill="white"/>
<path d="M12.6807 12.3739L4.96419 23.6138C4.94857 23.6362 4.9068 23.6482 4.83888 23.6498C4.65527 23.6539 4.47199 23.6503 4.28906 23.6389C4.02009 23.622 3.83727 23.6125 3.7406 23.6104C3.05143 23.5953 2.36486 23.5689 1.6809 23.5313C1.66369 23.5304 1.66007 23.5229 1.67003 23.5089L12.0269 8.76428C12.0343 8.75365 12.0443 8.74505 12.0559 8.73924C12.0676 8.73342 12.0805 8.73059 12.0935 8.73099C12.8644 8.75499 13.6184 8.78227 14.3556 8.81284C14.3579 8.81306 14.432 8.81375 14.5781 8.81488C14.6625 8.81556 14.7423 8.82269 14.8175 8.83627C14.8288 8.8384 14.8393 8.84373 14.8477 8.85162C14.856 8.8595 14.8619 8.86962 14.8647 8.88076L18.7202 24.1511C18.721 24.1541 18.721 24.1573 18.7203 24.1604C18.7196 24.1635 18.7182 24.1663 18.7162 24.1688C18.7142 24.1712 18.7117 24.1731 18.7089 24.1743C18.706 24.1755 18.7029 24.1761 18.6998 24.1759C18.2067 24.1476 17.7126 24.1274 17.2175 24.1154C17.0207 24.1104 16.7945 24.1013 16.5389 24.0879C16.1855 24.0696 15.832 24.0594 15.4783 24.0573C15.4717 24.0574 15.4652 24.0551 15.4599 24.051C15.4547 24.0469 15.451 24.0411 15.4495 24.0346C15.3306 23.548 15.214 23.0612 15.0997 22.5739C14.3012 19.1741 13.4992 15.7748 12.6939 12.3763C12.6914 12.3654 12.687 12.3646 12.6807 12.3739Z" fill="white"/>
<path d="M19.2666 21.9151C19.1681 21.8293 19.103 21.7224 19.0713 21.5945C17.6189 15.713 16.7519 12.187 16.4703 11.0165C16.4512 10.9377 16.4647 10.8411 16.5107 10.7268C16.5512 10.6256 16.6166 10.5684 16.707 10.5553C16.7808 10.5447 16.8535 10.5671 16.925 10.6225C17.0244 10.6993 17.0907 10.8051 17.124 10.9401C18.4996 16.5121 19.3508 19.9739 19.6775 21.3255C19.7024 21.4288 19.7091 21.5531 19.6975 21.6984C19.6916 21.7724 19.6736 21.8299 19.6435 21.8709C19.603 21.9262 19.5499 21.9616 19.4843 21.9772C19.4073 21.9953 19.3347 21.9746 19.2666 21.9151Z" fill="white"/>
</svg>
