<svg width="66" height="66" viewBox="0 0 66 66" fill="none" xmlns="http://www.w3.org/2000/svg">
<path d="M16.4358 18.9893H30.0896C30.8138 18.9893 31.5084 19.2749 32.0205 19.7834C32.5326 20.2919 32.8204 20.9815 32.8204 21.7006C32.8204 22.4197 32.5326 23.1093 32.0205 23.6178C31.5084 24.1263 30.8138 24.4119 30.0896 24.4119H16.4358C15.7116 24.4119 15.017 24.1263 14.5049 23.6178C13.9928 23.1093 13.7051 22.4197 13.7051 21.7006C13.7051 20.9815 13.9928 20.2919 14.5049 19.7834C15.017 19.2749 15.7116 18.9893 16.4358 18.9893V18.9893ZM35.5511 40.68H49.2049C49.9291 40.68 50.6237 40.9656 51.1358 41.4741C51.6479 41.9826 51.9356 42.6722 51.9356 43.3913C51.9356 44.1104 51.6479 44.8 51.1358 45.3085C50.6237 45.817 49.9291 46.1026 49.2049 46.1026H35.5511C34.8269 46.1026 34.1323 45.817 33.6202 45.3085C33.1081 44.8 32.8204 44.1104 32.8204 43.3913C32.8204 42.6722 33.1081 41.9826 33.6202 41.4741C34.1323 40.9656 34.8269 40.68 35.5511 40.68ZM16.4358 29.8346H49.2049C49.9291 29.8346 50.6237 30.1203 51.1358 30.6287C51.6479 31.1372 51.9356 31.8269 51.9356 32.5459C51.9356 33.265 51.6479 33.9547 51.1358 34.4632C50.6237 34.9716 49.9291 35.2573 49.2049 35.2573H16.4358C15.7116 35.2573 15.017 34.9716 14.5049 34.4632C13.9928 33.9547 13.7051 33.265 13.7051 32.5459C13.7051 31.8269 13.9928 31.1372 14.5049 30.6287C15.017 30.1203 15.7116 29.8346 16.4358 29.8346V29.8346Z" fill="white"/>
</svg>
