<svg width="30" height="32" viewBox="0 0 30 32" fill="none" xmlns="http://www.w3.org/2000/svg">
<path d="M27.5 0.5625H2.5C1.91984 0.5625 1.36344 0.792968 0.953204 1.2032C0.542968 1.61344 0.3125 2.16984 0.3125 2.75V11.9328C0.3125 25.7203 11.9812 30.2953 14.3203 31.0719C14.761 31.2219 15.239 31.2219 15.6797 31.0719C18.0234 30.2906 29.6875 25.7203 29.6875 11.9328V2.75C29.6875 2.16984 29.457 1.61344 29.0468 1.2032C28.6366 0.792968 28.0802 0.5625 27.5 0.5625ZM27.8125 11.9359C27.8125 24.4359 17.2125 28.5906 15.0875 29.2953C15.0312 29.3171 14.9688 29.3171 14.9125 29.2953C12.7875 28.5906 2.1875 24.4359 2.1875 11.9359V2.75C2.1875 2.66712 2.22042 2.58763 2.27903 2.52903C2.33763 2.47042 2.41712 2.4375 2.5 2.4375H27.5C27.5829 2.4375 27.6624 2.47042 27.721 2.52903C27.7796 2.58763 27.8125 2.66712 27.8125 2.75V11.9359ZM21.9125 9.59219C22.0881 9.76797 22.1867 10.0062 22.1867 10.2547C22.1867 10.5031 22.0881 10.7414 21.9125 10.9172L13.1625 19.6672C12.9867 19.8428 12.7484 19.9414 12.5 19.9414C12.2516 19.9414 12.0133 19.8428 11.8375 19.6672L8.0875 15.9172C7.9219 15.7395 7.83175 15.5044 7.83603 15.2615C7.84032 15.0187 7.93871 14.7869 8.11047 14.6152C8.28224 14.4434 8.51397 14.345 8.75685 14.3407C8.99972 14.3364 9.23478 14.4266 9.4125 14.5922L12.5 17.6734L20.5875 9.5875C20.7633 9.41194 21.0016 9.31332 21.25 9.31332C21.4984 9.31332 21.7367 9.41194 21.9125 9.5875V9.59219Z" fill="#12A588"/>
</svg>
