<svg width="25" height="24" viewBox="0 0 25 24" fill="none" xmlns="http://www.w3.org/2000/svg">
<path d="M20.9375 6.07879H19.0625V4.20379C19.0616 3.44245 18.8291 2.6994 18.3957 2.07343C17.9623 1.44746 17.3487 0.968235 16.6364 0.699459C15.924 0.430684 15.1468 0.385094 14.4079 0.56875C13.669 0.752407 13.0036 1.15661 12.5 1.72762C12.0201 1.18366 11.3927 0.790575 10.6938 0.596008C9.99499 0.40144 9.25473 0.413742 8.56274 0.631421C7.87075 0.849101 7.25676 1.26281 6.79517 1.82242C6.33357 2.38203 6.0442 3.0635 5.96211 3.78426C5.39256 3.44964 4.74473 3.2714 4.08417 3.26758C3.42361 3.26377 2.77376 3.43451 2.20038 3.76252C1.627 4.09054 1.15045 4.5642 0.818933 5.13556C0.487421 5.70692 0.312717 6.35572 0.3125 7.01629V11.7038C0.3125 14.9361 1.59654 18.0361 3.88214 20.3217C6.16774 22.6073 9.26767 23.8913 12.5 23.8913C15.7323 23.8913 18.8323 22.6073 21.1179 20.3217C23.4035 18.0361 24.6875 14.9361 24.6875 11.7038V9.82879C24.6875 8.83423 24.2924 7.8804 23.5891 7.17714C22.8859 6.47388 21.9321 6.07879 20.9375 6.07879ZM15.3125 2.32879C15.8098 2.32879 16.2867 2.52634 16.6383 2.87797C16.99 3.2296 17.1875 3.70651 17.1875 4.20379V6.07879H13.4375V4.20379C13.4375 3.70651 13.635 3.2296 13.9867 2.87797C14.3383 2.52634 14.8152 2.32879 15.3125 2.32879ZM7.8125 4.20379C7.8125 3.70651 8.01004 3.2296 8.36168 2.87797C8.71331 2.52634 9.19022 2.32879 9.6875 2.32879C10.1848 2.32879 10.6617 2.52634 11.0133 2.87797C11.365 3.2296 11.5625 3.70651 11.5625 4.20379V8.89129C11.5625 9.38857 11.365 9.86549 11.0133 10.2171C10.6617 10.5687 10.1848 10.7663 9.6875 10.7663C9.19022 10.7663 8.71331 10.5687 8.36168 10.2171C8.01004 9.86549 7.8125 9.38857 7.8125 8.89129V4.20379ZM2.1875 7.01629C2.1875 6.51901 2.38504 6.0421 2.73667 5.69047C3.08831 5.33884 3.56522 5.14129 4.0625 5.14129C4.55978 5.14129 5.03669 5.33884 5.38832 5.69047C5.73996 6.0421 5.9375 6.51901 5.9375 7.01629V8.89129C5.9375 9.38857 5.73996 9.86549 5.38832 10.2171C5.03669 10.5687 4.55978 10.7663 4.0625 10.7663C3.56522 10.7663 3.08831 10.5687 2.73667 10.2171C2.38504 9.86549 2.1875 9.38857 2.1875 8.89129V7.01629ZM22.8125 11.7038C22.8125 14.4007 21.7559 16.9904 19.8693 18.9176C17.9827 20.8448 15.4161 21.9563 12.7198 22.0138C10.0234 22.0713 7.41187 21.0702 5.44484 19.2251C3.4778 17.38 2.31185 14.8377 2.19688 12.1432C2.94624 12.5742 3.82171 12.7324 4.67452 12.591C5.52733 12.4496 6.30487 12.0173 6.875 11.3675C7.52112 12.1037 8.43017 12.5572 9.40694 12.6306C10.3837 12.704 11.3503 12.3914 12.0992 11.76C12.4365 12.319 12.9129 12.7809 13.482 13.1007C12.8788 13.6276 12.3955 14.2776 12.0644 15.0068C11.7333 15.7361 11.5621 16.5279 11.5625 17.3288C11.5625 17.5774 11.6613 17.8159 11.8371 17.9917C12.0129 18.1675 12.2514 18.2663 12.5 18.2663C12.7486 18.2663 12.9871 18.1675 13.1629 17.9917C13.3387 17.8159 13.4375 17.5774 13.4375 17.3288C13.4375 16.3342 13.8326 15.3804 14.5359 14.6771C15.2391 13.9739 16.1929 13.5788 17.1875 13.5788C17.4361 13.5788 17.6746 13.48 17.8504 13.3042C18.0262 13.1284 18.125 12.8899 18.125 12.6413C18.125 12.3927 18.0262 12.1542 17.8504 11.9784C17.6746 11.8026 17.4361 11.7038 17.1875 11.7038H15.3125C14.8152 11.7038 14.3383 11.5062 13.9867 11.1546C13.635 10.803 13.4375 10.3261 13.4375 9.82879V7.95379H20.9375C21.4348 7.95379 21.9117 8.15134 22.2633 8.50297C22.615 8.8546 22.8125 9.33151 22.8125 9.82879V11.7038Z" fill="#FF7A3B"/>
</svg>
