<svg width="48" height="50" viewBox="0 0 48 50" fill="none" xmlns="http://www.w3.org/2000/svg">
<path d="M48.001 49C40.1587 49 33.5585 35.2735 33.5585 18.341C33.5585 8.76384 36.3841 1 39.8695 1C43.355 1 46.1805 8.76384 46.1805 18.341C46.1805 35.2735 39.823 49 31.9807 49C24.1385 49 17.5383 35.2735 17.5383 18.341C17.5383 8.76384 20.3638 1 23.8493 1C27.3348 1 30.1602 8.76384 30.1602 18.341C30.1602 35.2735 23.8028 49 15.9605 49C8.11816 49 1.51805 35.2735 1.51805 18.341M1.57873 18.341C1.57873 8.76384 4.40426 1 7.88973 1C11.3751 1 14.2007 8.76384 14.2007 18.341C14.2007 35.2735 7.8433 49 0.000976562 49" stroke="#525252" stroke-width="1.16667" stroke-linejoin="round"/>
</svg>
