<svg width="25" height="25" viewBox="0 0 25 25" fill="none" xmlns="http://www.w3.org/2000/svg">
<path d="M24.4134 23.2911L18.547 17.4247C20.2507 15.3815 21.101 12.76 20.9211 10.1058C20.7412 7.45158 19.5449 4.96889 17.5811 3.17423C15.6173 1.37956 13.0371 0.411111 10.3775 0.470338C7.71782 0.529566 5.18338 1.61191 3.30141 3.49222C1.41945 5.37252 0.334858 7.906 0.27328 10.5656C0.211702 13.2252 1.17787 15.8062 2.9708 17.7716C4.76373 19.737 7.24536 20.9354 9.89943 21.1177C12.5535 21.3 15.1757 20.452 17.2204 18.7501L23.0868 24.6177C23.1739 24.7048 23.2773 24.7739 23.3912 24.821C23.505 24.8682 23.6269 24.8924 23.7501 24.8924C23.8733 24.8924 23.9953 24.8682 24.1091 24.821C24.2229 24.7739 24.3263 24.7048 24.4134 24.6177C24.5005 24.5306 24.5696 24.4272 24.6167 24.3134C24.6639 24.1996 24.6881 24.0776 24.6881 23.9544C24.6881 23.8312 24.6639 23.7092 24.6167 23.5954C24.5696 23.4816 24.5005 23.3782 24.4134 23.2911ZM2.18762 10.8294C2.18762 9.16062 2.68247 7.52932 3.6096 6.14178C4.53672 4.75424 5.85448 3.67278 7.39623 3.03417C8.93798 2.39556 10.6345 2.22847 12.2712 2.55403C13.9079 2.87959 15.4113 3.68318 16.5913 4.86319C17.7713 6.0432 18.5749 7.54661 18.9005 9.18333C19.2261 10.82 19.059 12.5165 18.4204 14.0583C17.7817 15.6 16.7003 16.9178 15.3127 17.8449C13.9252 18.7721 12.2939 19.2669 10.6251 19.2669C8.38812 19.2644 6.24345 18.3747 4.66165 16.7929C3.07985 15.2111 2.1901 13.0664 2.18762 10.8294Z" fill="#FF7A3B"/>
</svg>
