<svg width="66" height="34" viewBox="0 0 66 34" fill="none" xmlns="http://www.w3.org/2000/svg">
<path d="M1 26.0741C4.56557 22.24 8.36971 18.7615 11.9668 14.9677C14.316 12.4901 16.641 9.97592 18.9625 7.45878C20.4715 5.82264 22.3074 4.21501 23.5108 2.19111C23.6781 1.90985 24.2454 0.912117 23.5224 1.00624C21.0635 1.32631 18.1625 4.85463 16.4228 6.6879C11.077 12.3214 6.75569 19.7515 3.13564 27.1448C2.98008 27.4624 -0.19358 33.7459 1.69264 32.9263C3.62438 32.087 5.42896 30.1681 7.11833 28.815C10.3755 26.2062 13.6627 23.6731 17.0115 21.249C18.2468 20.3548 19.4224 19.3366 20.6595 18.4509C21.9232 17.5462 20.2551 19.7216 20.1631 19.85C18.514 22.1477 16.7672 24.3371 15.153 26.6737C14.4078 27.7522 11.6848 31.0126 11.9553 32.7408C12.1994 34.3008 24.3696 26.7685 25.2309 26.2882C25.7417 26.0034 34.3812 20.6141 34.1082 23.6187C33.9533 25.3242 30.5995 30.6021 33.3232 31.0563C37.5558 31.762 42.039 27.9027 45.8139 26.0455C47.2498 25.3391 44.8713 28.7242 44.8557 29.6144C44.8044 32.5327 54.0617 30.0302 55.303 29.8428C58.5733 29.3492 61.7264 30.282 65 29.4146" stroke="#525252" stroke-linecap="round" stroke-linejoin="round"/>
</svg>
