<svg width="56" height="56" viewBox="0 0 56 56" fill="none" xmlns="http://www.w3.org/2000/svg">
<path d="M36.4873 8.46177L27.9503 4L19.4131 8.46177M36.4873 8.46177L27.9503 12.9235M36.4873 8.46177V13.8282M19.4131 8.46177L27.9503 12.9235M19.4131 8.46177V13.7766M27.9503 12.9235V18.9915M36.4873 13.8282L41.4624 11.228L49.9996 15.6898M36.4873 13.8282L32.9253 15.6898M19.4131 13.7766L23.0738 15.6898M19.4131 13.7766L14.5366 11.228L5.99951 15.6898M27.9503 18.9915L32.9253 21.5916M27.9503 18.9915L23.0738 21.5401M23.0738 15.6898L14.5366 20.1516M23.0738 15.6898V21.5401M14.5366 20.1516V44.2365M14.5366 20.1516L5.99951 15.6898M23.0738 21.5401L19.4131 23.4533M14.5366 44.2365L5.99951 39.7748V15.6898M14.5366 44.2365L19.4131 41.6879M19.4131 41.6879V47.5383L27.9503 52M19.4131 41.6879V23.4533M49.9996 15.6898V39.7748L41.4624 44.2365M49.9996 15.6898L41.4624 20.1516M41.4624 44.2365V20.1516M41.4624 44.2365L36.4873 41.6365M41.4624 20.1516L32.9253 15.6898M36.4873 41.6365V23.4533M36.4873 41.6365V47.5383L27.9503 52M32.9253 15.6898V21.5916M32.9253 21.5916L36.4873 23.4533M36.4873 23.4533L27.9503 27.9151M27.9503 27.9151V52M27.9503 27.9151L19.4131 23.4533" stroke="#525252" stroke-width="1.16667" stroke-linejoin="round"/>
</svg>
