<svg width="106" height="105" viewBox="0 0 106 105" fill="none" xmlns="http://www.w3.org/2000/svg">
<g clip-path="url(#clip0_501_124)">
<path d="M64.8798 74.0283L63.6835 57.9023C63.6516 57.1048 63.3884 56.403 62.894 55.7969C62.3995 55.1908 61.7694 54.7601 61.0038 54.5049L56.6972 53.165C56.6653 53.165 56.6334 53.165 56.6015 53.165C56.5696 53.165 56.5536 53.165 56.5536 53.165C56.4898 53.0693 56.4021 52.9896 56.2904 52.9258C56.1788 52.862 56.0751 52.8141 55.9794 52.7822C55.788 52.7822 55.6125 52.8301 55.453 52.9258C55.2935 53.0215 55.1819 53.1491 55.1181 53.3086L53.7304 52.6865C53.4752 52.5908 53.2598 52.4154 53.0844 52.1602C52.9089 51.9049 52.8212 51.6338 52.8212 51.3467V49.4805C53.5549 48.5234 54.1212 47.4149 54.5199 46.1548C54.9187 44.8947 55.1181 43.5469 55.1181 42.1113C55.1181 42.0156 55.1181 41.9199 55.1181 41.8242C55.1181 41.7285 55.1181 41.6328 55.1181 41.5371C55.5009 40.3568 55.8678 38.5942 56.2187 36.2495C56.5696 33.9048 56.4579 31.7116 55.8837 29.6699C55.8837 29.6699 55.8837 29.6619 55.8837 29.646C55.8837 29.63 55.8678 29.6221 55.8359 29.6221C55.8359 29.6221 55.8359 29.6061 55.8359 29.5742C55.8359 29.5742 55.8359 29.5662 55.8359 29.5503C55.8359 29.5343 55.8199 29.5264 55.788 29.5264C55.788 29.5264 55.788 29.5184 55.788 29.5024C55.788 29.4865 55.788 29.4785 55.788 29.4785C55.788 29.4785 55.788 29.4626 55.788 29.4307C55.788 29.4307 55.78 29.4307 55.7641 29.4307C55.7481 29.4307 55.7401 29.4307 55.7401 29.4307C55.7401 29.4307 55.7401 29.4227 55.7401 29.4067C55.7401 29.3908 55.7401 29.3828 55.7401 29.3828C55.7401 29.3828 55.7322 29.3828 55.7162 29.3828C55.7003 29.3828 55.6923 29.3828 55.6923 29.3828C55.6923 29.3509 55.6923 29.335 55.6923 29.335C55.6604 29.335 55.6444 29.335 55.6444 29.335C55.6444 29.335 55.6444 29.319 55.6444 29.2871C55.6444 29.2871 55.6285 29.2871 55.5966 29.2871C55.5966 29.2871 55.5966 29.2791 55.5966 29.2632C55.5966 29.2472 55.5966 29.2393 55.5966 29.2393C55.5966 29.2393 55.5886 29.2393 55.5727 29.2393C55.5567 29.2393 55.5487 29.2393 55.5487 29.2393C55.5487 29.2393 55.5328 29.2233 55.5009 29.1914C55.5009 29.1914 55.4929 29.1914 55.477 29.1914C55.461 29.1914 55.453 29.1914 55.453 29.1914C55.453 29.1914 55.4451 29.1834 55.4291 29.1675C55.4132 29.1515 55.4052 29.1436 55.4052 29.1436C55.3733 29.1436 55.3573 29.1436 55.3573 29.1436C55.3573 29.1436 55.3494 29.1436 55.3334 29.1436C55.3175 29.1436 55.3095 29.1436 55.3095 29.1436C55.3095 29.1436 55.3015 29.1356 55.2856 29.1196C55.2696 29.1037 55.2616 29.0957 55.2616 29.0957C55.2297 29.0957 55.2138 29.0957 55.2138 29.0957C55.1819 29.0957 55.1659 29.0957 55.1659 29.0957C55.1659 29.0957 55.158 29.0957 55.142 29.0957C55.1261 29.0957 55.1181 29.0957 55.1181 29.0957C55.1181 29.0957 55.1101 29.0957 55.0942 29.0957C55.0782 29.0957 55.0702 29.0957 55.0702 29.0957C55.0702 29.0957 55.0543 29.0957 55.0224 29.0957C54.9905 29.0957 54.9745 29.0957 54.9745 29.0957C54.9745 29.0957 54.9665 29.0957 54.9506 29.0957C54.9346 29.0957 54.9267 29.0957 54.9267 29.0957C54.9267 29.1276 54.9187 29.1436 54.9027 29.1436C54.8868 29.1436 54.8788 29.1436 54.8788 29.1436C54.8788 29.1436 54.8629 29.1436 54.831 29.1436C54.7991 29.1436 54.7831 29.1436 54.7831 29.1436C54.177 29.3988 53.4034 29.4705 52.4623 29.3589C51.5212 29.2472 50.5403 29.0957 49.5194 28.9043C48.1158 28.6491 46.6803 28.4577 45.2128 28.3301C43.7454 28.2025 42.3896 28.4577 41.1454 29.0957C40.5074 29.1276 39.9332 29.2632 39.4228 29.5024C38.9123 29.7417 38.4817 30.1006 38.1308 30.5791C37.078 32.0146 36.759 33.9367 37.1737 36.3452C37.5885 38.7537 37.9553 40.4684 38.2743 41.4893C38.2743 41.6169 38.2743 41.7285 38.2743 41.8242C38.2743 41.9199 38.2743 42.0156 38.2743 42.1113C38.2743 43.5469 38.4737 44.8947 38.8725 46.1548C39.2712 47.4149 39.8375 48.5234 40.5712 49.4805V51.3467C40.5712 51.6338 40.4835 51.9049 40.308 52.1602C40.1326 52.4154 39.9172 52.5908 39.662 52.6865L38.2743 53.3086C38.2105 53.1491 38.0989 53.0215 37.9394 52.9258C37.7799 52.8301 37.6044 52.7822 37.413 52.7822C37.3173 52.8141 37.2136 52.862 37.102 52.9258C36.9903 52.9896 36.9026 53.0693 36.8388 53.165C36.8388 53.165 36.8228 53.165 36.7909 53.165C36.759 53.165 36.7271 53.165 36.6952 53.165L32.3886 54.5049C31.623 54.7601 30.9929 55.1908 30.4984 55.7969C30.004 56.403 29.7408 57.1048 29.7089 57.9023L28.5126 74.0283C28.4807 74.443 28.5365 74.8577 28.6801 75.2725C28.8236 75.6872 29.039 76.0381 29.3261 76.3252C29.6132 76.6442 29.9561 76.8914 30.3549 77.0669C30.7537 77.2424 31.1604 77.3301 31.5751 77.3301H61.8173C62.232 77.3301 62.6387 77.2424 63.0375 77.0669C63.4363 76.8914 63.7792 76.6442 64.0663 76.3252C64.3534 76.0381 64.5688 75.6872 64.7123 75.2725C64.8559 74.8577 64.9117 74.443 64.8798 74.0283ZM53.7782 64.5059C53.6506 64.4102 53.4991 64.3464 53.3236 64.3145C53.1482 64.2826 52.9807 64.2666 52.8212 64.2666H52.5341L52.4384 64.0273C52.2151 63.6445 51.92 63.3335 51.5531 63.0942C51.1863 62.855 50.7795 62.7354 50.3329 62.7354H46.122C45.6754 62.7354 45.2686 62.855 44.9018 63.0942C44.5349 63.3335 44.2398 63.6445 44.0165 64.0273L43.9208 64.2666H40.5712C40.4117 64.2666 40.2442 64.2826 40.0688 64.3145C39.8933 64.3464 39.7418 64.4102 39.6142 64.5059L38.8007 57.6631C39.0878 58.014 39.3829 58.333 39.6859 58.6201C39.989 58.9072 40.3319 59.1784 40.7148 59.4336C41.5761 60.0397 42.5172 60.4943 43.538 60.7974C44.5588 61.1004 45.6116 61.252 46.6962 61.252C47.7808 61.252 48.8336 61.1004 49.8544 60.7974C50.8752 60.4943 51.8163 60.0397 52.6776 59.4336C53.0605 59.1784 53.4034 58.9072 53.7065 58.6201C54.0095 58.333 54.3046 58.014 54.5917 57.6631L53.7782 64.5059ZM45.2128 69.6738C45.2128 68.8125 45.5079 68.0868 46.0981 67.4966C46.6882 66.9064 47.398 66.6113 48.2275 66.6113C49.0569 66.6113 49.7667 66.9064 50.3568 67.4966C50.947 68.0868 51.2421 68.8125 51.2421 69.6738C51.2421 70.5033 50.947 71.2131 50.3568 71.8032C49.7667 72.3934 49.0569 72.6885 48.2275 72.6885C47.398 72.6885 46.6882 72.3934 46.0981 71.8032C45.5079 71.2131 45.2128 70.5033 45.2128 69.6738ZM48.2275 65.0322C46.9514 65.0322 45.8588 65.4868 44.9496 66.396C44.0404 67.3052 43.5859 68.3978 43.5859 69.6738C43.5859 70.248 43.6895 70.7904 43.8969 71.3008C44.1042 71.8112 44.3834 72.2738 44.7343 72.6885H40.5712C40.3798 72.6885 40.2123 72.6167 40.0688 72.4731C39.9252 72.3296 39.8534 72.1462 39.8534 71.9229V66.6113C39.8534 66.388 39.9252 66.2046 40.0688 66.061C40.2123 65.9175 40.3798 65.8457 40.5712 65.8457H44.3993C44.5588 65.8457 44.7024 65.8058 44.83 65.7261C44.9576 65.6463 45.0533 65.5426 45.1171 65.415L45.4521 64.7451C45.5159 64.6175 45.6036 64.5138 45.7152 64.4341C45.8269 64.3543 45.9625 64.3145 46.122 64.3145H50.3329C50.4924 64.3145 50.628 64.3543 50.7397 64.4341C50.8513 64.5138 50.939 64.6175 51.0028 64.7451L51.3378 65.415C51.4016 65.5426 51.4973 65.6463 51.6249 65.7261C51.7525 65.8058 51.8961 65.8457 52.0556 65.8457H52.8212C53.0126 65.8457 53.1801 65.9175 53.3236 66.061C53.4672 66.2046 53.539 66.388 53.539 66.6113V71.9229C53.539 72.1462 53.4672 72.3296 53.3236 72.4731C53.1801 72.6167 53.0126 72.6885 52.8212 72.6885H51.7206C52.0715 72.2738 52.3427 71.8112 52.5341 71.3008C52.7255 70.7904 52.8212 70.248 52.8212 69.6738C52.8212 68.3978 52.3746 67.3052 51.4814 66.396C50.5881 65.4868 49.5035 65.0322 48.2275 65.0322ZM39.4228 31.5361C39.6461 31.249 39.9093 31.0337 40.2123 30.8901C40.5154 30.7466 40.8743 30.6748 41.289 30.6748C41.289 30.6748 41.297 30.6748 41.3129 30.6748C41.3289 30.6748 41.3368 30.6748 41.3368 30.6748C41.3687 30.6748 41.3847 30.6748 41.3847 30.6748C41.3847 30.6748 41.4006 30.6748 41.4325 30.6748C41.4325 30.6748 41.4405 30.6748 41.4565 30.6748C41.4724 30.6748 41.4804 30.6748 41.4804 30.6748C41.5123 30.6748 41.5282 30.6748 41.5282 30.6748C41.5282 30.6748 41.5362 30.6748 41.5522 30.6748C41.5681 30.6748 41.5761 30.6589 41.5761 30.627C41.608 30.627 41.6239 30.627 41.6239 30.627C41.6239 30.627 41.6399 30.627 41.6718 30.627C41.6718 30.627 41.6798 30.619 41.6957 30.603C41.7117 30.5871 41.7196 30.5791 41.7196 30.5791C42.7405 30.0368 43.9049 29.8215 45.2128 29.9331C46.5207 30.0448 47.8446 30.2282 49.1845 30.4834C49.9182 30.611 50.62 30.7306 51.29 30.8423C51.9599 30.9539 52.6138 31.0098 53.2519 31.0098C53.4752 31.0098 53.6905 31.0018 53.8979 30.9858C54.1052 30.9699 54.3206 30.93 54.5439 30.8662C54.7672 32.0465 54.8389 33.2428 54.7592 34.4551C54.6794 35.6673 54.5598 36.7679 54.4003 37.7568C54.3684 37.693 54.3445 37.6372 54.3285 37.5894C54.3126 37.5415 54.3046 37.5016 54.3046 37.4697C54.2408 37.3421 54.177 37.2384 54.1132 37.1587C54.0494 37.0789 53.9696 37.0231 53.8739 36.9912C52.3746 36.3851 50.5004 35.9225 48.2514 35.6035C46.0024 35.2845 43.4742 35.141 40.6669 35.1729C40.5393 35.1729 40.4197 35.2127 40.308 35.2925C40.1964 35.3722 40.0927 35.46 39.997 35.5557C39.8056 35.9066 39.6221 36.2655 39.4467 36.6323C39.2712 36.9992 39.1197 37.39 38.9921 37.8047C38.6731 36.1458 38.5854 34.798 38.7289 33.7612C38.8725 32.7244 39.1038 31.9827 39.4228 31.5361ZM39.8534 41.6328C39.8534 41.569 39.8614 41.5132 39.8774 41.4653C39.8933 41.4175 39.8853 41.3776 39.8534 41.3457C39.9172 40.5163 40.0608 39.7188 40.2841 38.9531C40.5074 38.1875 40.7945 37.4538 41.1454 36.752C43.6337 36.752 45.8748 36.8875 47.8686 37.1587C49.8624 37.4299 51.5452 37.8206 52.9169 38.3311C53.1402 38.9372 53.2997 39.5592 53.3954 40.1973C53.4911 40.8353 53.539 41.4733 53.539 42.1113C53.539 43.4193 53.3555 44.6395 52.9887 45.772C52.6218 46.9045 52.1034 47.8854 51.4335 48.7148C51.4335 48.7148 51.4335 48.7228 51.4335 48.7388C51.4335 48.7547 51.4176 48.7627 51.3857 48.7627C50.7795 49.5283 50.0777 50.1344 49.2802 50.5811C48.4827 51.0277 47.6213 51.251 46.6962 51.251C45.7711 51.251 44.9097 51.0277 44.1122 50.5811C43.3147 50.1344 42.6129 49.5283 42.0067 48.7627C41.9748 48.7627 41.9589 48.7547 41.9589 48.7388C41.9589 48.7228 41.9589 48.7148 41.9589 48.7148C41.289 47.8854 40.7706 46.9045 40.4037 45.772C40.0369 44.6395 39.8534 43.4193 39.8534 42.1113C39.8534 42.0475 39.8534 41.9678 39.8534 41.8721C39.8534 41.7764 39.8534 41.6966 39.8534 41.6328ZM40.2841 54.1699C40.8583 53.9147 41.3129 53.5319 41.6479 53.0215C41.9828 52.5111 42.1503 51.9528 42.1503 51.3467V51.1553C42.7883 51.6976 43.4981 52.1203 44.2797 52.4233C45.0613 52.7264 45.8668 52.8779 46.6962 52.8779C47.5256 52.8779 48.3311 52.7264 49.1127 52.4233C49.8943 52.1203 50.6041 51.6976 51.2421 51.1553V51.3467C51.2421 51.9528 51.4096 52.5111 51.7445 53.0215C52.0795 53.5319 52.5341 53.9147 53.1083 54.1699L54.5439 54.792C53.9058 56.2275 52.8691 57.3999 51.4335 58.3091C49.998 59.2183 48.4189 59.6729 46.6962 59.6729C44.9735 59.6729 43.3944 59.2183 41.9589 58.3091C40.5233 57.3999 39.4866 56.2275 38.8485 54.792L40.2841 54.1699ZM32.8671 56.0361L36.8388 54.792L38.2743 66.6592V71.9707C38.2743 72.6087 38.4976 73.151 38.9442 73.5977C39.3909 74.0443 39.9332 74.2676 40.5712 74.2676H52.8212C53.4592 74.2676 54.0015 74.0443 54.4482 73.5977C54.8948 73.151 55.1181 72.6087 55.1181 71.9707V66.6592L56.5536 54.792L60.5253 56.0361C60.6529 56.068 60.7725 56.1159 60.8842 56.1797C60.9958 56.2435 61.0995 56.3073 61.1952 56.3711L57.9892 60.6777C57.5426 61.252 57.1996 61.8979 56.9604 62.6157C56.7211 63.3335 56.6015 64.0592 56.6015 64.793V75.751H36.7909V64.793C36.7909 64.0592 36.6713 63.3335 36.432 62.6157C36.1928 61.8979 35.8498 61.252 35.4032 60.6777L32.1972 56.3711C32.2929 56.3073 32.3966 56.2435 32.5082 56.1797C32.6199 56.1159 32.7395 56.068 32.8671 56.0361ZM30.4745 75.2725C30.3469 75.113 30.2432 74.9375 30.1635 74.7461C30.0837 74.5547 30.0598 74.3473 30.0917 74.124L31.288 58.0459C31.288 58.014 31.288 57.9821 31.288 57.9502C31.288 57.9183 31.288 57.8864 31.288 57.8545L34.1112 61.6348C34.4622 62.0814 34.7333 62.5758 34.9247 63.1182C35.1161 63.6605 35.2118 64.2188 35.2118 64.793V75.751H31.5751C31.3518 75.751 31.1524 75.7111 30.977 75.6313C30.8015 75.5516 30.634 75.432 30.4745 75.2725ZM62.9179 75.2725C62.7584 75.432 62.5909 75.5516 62.4154 75.6313C62.24 75.7111 62.0406 75.751 61.8173 75.751H58.1806V64.793C58.1806 64.2188 58.2763 63.6605 58.4677 63.1182C58.6591 62.5758 58.9303 62.0814 59.2812 61.6348L62.1044 57.8545C62.1044 57.8864 62.1044 57.9183 62.1044 57.9502C62.1044 57.9821 62.1044 58.014 62.1044 58.0459L63.3007 74.124C63.3326 74.3473 63.3087 74.5547 63.2289 74.7461C63.1492 74.9375 63.0455 75.113 62.9179 75.2725ZM48.2275 67.3291C47.5894 67.3291 47.0391 67.5524 46.5766 67.999C46.114 68.4456 45.8827 69.0039 45.8827 69.6738C45.8827 70.3118 46.114 70.8542 46.5766 71.3008C47.0391 71.7474 47.5894 71.9707 48.2275 71.9707C48.8655 71.9707 49.4158 71.7474 49.8783 71.3008C50.3409 70.8542 50.5722 70.3118 50.5722 69.6738C50.5722 69.0039 50.3409 68.4456 49.8783 67.999C49.4158 67.5524 48.8655 67.3291 48.2275 67.3291ZM48.2275 70.3916C48.036 70.3916 47.8686 70.3198 47.725 70.1763C47.5815 70.0327 47.5097 69.8652 47.5097 69.6738C47.5097 69.4505 47.5815 69.2671 47.725 69.1235C47.8686 68.98 48.036 68.9082 48.2275 68.9082C48.4189 68.9082 48.5863 68.98 48.7299 69.1235C48.8734 69.2671 48.9452 69.4505 48.9452 69.6738C48.9452 69.8652 48.8734 70.0327 48.7299 70.1763C48.5863 70.3198 48.4189 70.3916 48.2275 70.3916ZM42.1025 66.5635C41.8791 66.5635 41.6957 66.6432 41.5522 66.8027C41.4086 66.9622 41.3368 67.1536 41.3368 67.377V71.2051C41.3368 71.3965 41.4086 71.5719 41.5522 71.7314C41.6957 71.891 41.8791 71.9707 42.1025 71.9707C42.3258 71.9707 42.5172 71.891 42.6767 71.7314C42.8362 71.5719 42.9159 71.3965 42.9159 71.2051V67.377C42.9159 67.1536 42.8362 66.9622 42.6767 66.8027C42.5172 66.6432 42.3258 66.5635 42.1025 66.5635Z" fill="white"/>
</g>
<rect x="1.95312" y="1.7793" width="102.09" height="102.09" rx="51.045" stroke="#C48F56" stroke-width="2"/>
<defs>
<clipPath id="clip0_501_124">
<rect width="49" height="49" fill="white" transform="matrix(1 0 0 -1 28.5039 77.3301)"/>
</clipPath>
</defs>
</svg>
