<svg width="21" height="27" viewBox="0 0 21 27" fill="none" xmlns="http://www.w3.org/2000/svg">
<path d="M16.1252 25.3917C16.1252 25.6403 16.0264 25.8788 15.8506 26.0546C15.6748 26.2304 15.4363 26.3292 15.1877 26.3292H5.81265C5.56401 26.3292 5.32556 26.2304 5.14974 26.0546C4.97393 25.8788 4.87515 25.6403 4.87515 25.3917C4.87515 25.143 4.97393 24.9046 5.14974 24.7288C5.32556 24.5529 5.56401 24.4542 5.81265 24.4542H15.1877C15.4363 24.4542 15.6748 24.5529 15.8506 24.7288C16.0264 24.9046 16.1252 25.143 16.1252 25.3917ZM20.8127 10.3917C20.8167 11.9545 20.4636 13.4977 19.7804 14.9033C19.0972 16.3089 18.1019 17.5399 16.8705 18.5022C16.6402 18.6787 16.4534 18.9055 16.3242 19.1653C16.195 19.4251 16.1269 19.7109 16.1252 20.001V20.7042C16.1252 21.2014 15.9276 21.6784 15.576 22.03C15.2243 22.3816 14.7474 22.5792 14.2502 22.5792H6.75015C6.25287 22.5792 5.77596 22.3816 5.42433 22.03C5.0727 21.6784 4.87515 21.2014 4.87515 20.7042V20.001C4.87496 19.7144 4.80905 19.4316 4.68249 19.1744C4.55592 18.9172 4.37207 18.6925 4.14507 18.5174C2.91672 17.5608 1.92208 16.3372 1.23646 14.9394C0.55083 13.5415 0.19218 12.006 0.187653 10.4491C0.157185 4.86393 4.67125 0.212759 10.2517 0.0791651C11.6267 0.0460299 12.9945 0.28829 14.2745 0.791686C15.5545 1.29508 16.7208 2.04944 17.7049 3.01037C18.689 3.97129 19.4709 5.11936 20.0046 6.387C20.5383 7.65465 20.8131 9.01625 20.8127 10.3917ZM18.9377 10.3917C18.938 9.26627 18.7132 8.15218 18.2765 7.11497C17.8397 6.07777 17.1999 5.13841 16.3947 4.35219C15.5895 3.56597 14.6351 2.94878 13.5878 2.53695C12.5405 2.12512 11.4213 1.92697 10.2962 1.95416C5.72593 2.06198 2.03804 5.86706 2.06265 10.4374C2.06694 11.7107 2.36077 12.9664 2.92193 14.1094C3.4831 15.2525 4.29688 16.2529 5.30172 17.035C5.75341 17.3862 6.11877 17.836 6.36982 18.3501C6.62088 18.8642 6.75097 19.4289 6.75015 20.001V20.7042H14.2502V20.001C14.2515 19.4273 14.3838 18.8614 14.637 18.3466C14.8903 17.8317 15.2578 17.3815 15.7115 17.0303C16.7194 16.2426 17.534 15.2351 18.0932 14.0845C18.6523 12.934 18.9411 11.6709 18.9377 10.3917ZM17.0498 9.29713C16.8067 7.93928 16.1534 6.6885 15.1779 5.71319C14.2023 4.73788 12.9514 4.08486 11.5935 3.84206C11.4721 3.82159 11.3478 3.82524 11.2278 3.85279C11.1078 3.88035 10.9944 3.93127 10.8941 4.00266C10.7937 4.07404 10.7084 4.16449 10.6431 4.26884C10.5777 4.37318 10.5335 4.48938 10.513 4.61081C10.4926 4.73223 10.4962 4.85649 10.5238 4.9765C10.5513 5.09651 10.6023 5.20992 10.6736 5.31025C10.745 5.41058 10.8355 5.49587 10.9398 5.56125C11.0442 5.62662 11.1604 5.67081 11.2818 5.69127C13.2236 6.01823 14.8712 7.66588 15.2005 9.6112C15.2376 9.82954 15.3508 10.0277 15.5201 10.1706C15.6893 10.3134 15.9037 10.3917 16.1252 10.3917C16.1781 10.3913 16.231 10.387 16.2834 10.3788C16.5284 10.3369 16.7468 10.1995 16.8905 9.99665C17.0343 9.79381 17.0915 9.5422 17.0498 9.29713Z" fill="#FF7A3B"/>
</svg>
