<svg width="48" height="48" viewBox="0 0 48 48" fill="none" xmlns="http://www.w3.org/2000/svg">
<path d="M23.9992 0.857422C23.9992 0.857422 23.2589 12.8946 28.7499 15.9833C34.241 19.072 44.5706 12.4288 44.5706 12.4288C44.5706 12.4288 33.5007 17.8228 33.5007 24.0002C33.5007 30.1777 44.5706 35.5717 44.5706 35.5717C44.5706 35.5717 34.241 28.9284 28.7499 32.0172C23.2589 35.1059 23.9992 47.1431 23.9992 47.1431C23.9992 47.1431 24.7394 35.1059 19.2484 32.0172C13.7574 28.9284 3.42773 35.5717 3.42773 35.5717C3.42773 35.5717 14.4976 30.1777 14.4976 24.0002C14.4976 17.8228 3.42773 12.4288 3.42773 12.4288C3.42773 12.4288 13.7574 19.072 19.2484 15.9833C24.7394 12.8946 23.9992 0.857422 23.9992 0.857422Z" stroke="#525252" stroke-linejoin="round"/>
</svg>
