<svg width="26" height="25" viewBox="0 0 26 25" fill="none" xmlns="http://www.w3.org/2000/svg">
<path d="M1.1875 12.5162C1.28599 12.5901 1.39807 12.6438 1.51733 12.6744C1.63659 12.705 1.76071 12.7117 1.88258 12.6943C2.00446 12.6769 2.12171 12.6356 2.22765 12.5729C2.33359 12.5102 2.42613 12.4272 2.5 12.3287C3.06762 11.5719 3.80364 10.9576 4.64979 10.5346C5.49594 10.1115 6.42898 9.89123 7.375 9.89123C8.32103 9.89123 9.25406 10.1115 10.1002 10.5346C10.9464 10.9576 11.6824 11.5719 12.25 12.3287C12.3994 12.5275 12.6215 12.6587 12.8677 12.6937C13.1138 12.7286 13.3637 12.6644 13.5625 12.5151C13.6334 12.4624 13.6961 12.3996 13.7488 12.3287C14.3164 11.5719 15.0525 10.9576 15.8986 10.5346C16.7448 10.1115 17.6778 9.89123 18.6238 9.89123C19.5699 9.89123 20.5029 10.1115 21.349 10.5346C22.1952 10.9576 22.9312 11.5719 23.4988 12.3287C23.6482 12.5276 23.8704 12.6591 24.1167 12.6941C24.3629 12.7292 24.613 12.665 24.8119 12.5156C25.0108 12.3663 25.1423 12.1441 25.1773 11.8978C25.2124 11.6516 25.1482 11.4015 24.9988 11.2026C24.169 10.0901 23.0624 9.21415 21.7891 8.66193C22.4871 8.02459 22.9762 7.1911 23.1921 6.27083C23.408 5.35057 23.3406 4.38653 22.9988 3.50524C22.6571 2.62394 22.0568 1.86657 21.2769 1.33252C20.4969 0.798473 19.5738 0.512695 18.6285 0.512695C17.6833 0.512695 16.7601 0.798473 15.9802 1.33252C15.2002 1.86657 14.6 2.62394 14.2582 3.50524C13.9164 4.38653 13.849 5.35057 14.0649 6.27083C14.2808 7.1911 14.7699 8.02459 15.468 8.66193C14.5486 9.05949 13.7134 9.62863 13.007 10.3389C12.3007 9.62863 11.4655 9.05949 10.5461 8.66193C11.2442 8.02459 11.7332 7.1911 11.9491 6.27083C12.165 5.35057 12.0977 4.38653 11.7559 3.50524C11.4141 2.62394 10.8138 1.86657 10.0339 1.33252C9.25397 0.798473 8.3308 0.512695 7.38555 0.512695C6.44029 0.512695 5.51713 0.798473 4.7372 1.33252C3.95726 1.86657 3.35701 2.62394 3.01522 3.50524C2.67342 4.38653 2.60605 5.35057 2.82195 6.27083C3.03785 7.1911 3.52693 8.02459 4.225 8.66193C2.94608 9.21235 1.83402 10.0888 1 11.2037C0.926132 11.3022 0.872385 11.4143 0.841831 11.5336C0.811276 11.6528 0.804511 11.7769 0.821922 11.8988C0.839333 12.0207 0.880579 12.1379 0.943305 12.2439C1.00603 12.3498 1.08901 12.4424 1.1875 12.5162ZM18.625 2.39123C19.1813 2.39123 19.725 2.55618 20.1875 2.86522C20.6501 3.17426 21.0105 3.61351 21.2234 4.12743C21.4363 4.64135 21.492 5.20685 21.3835 5.75242C21.2749 6.29799 21.0071 6.79913 20.6137 7.19246C20.2204 7.5858 19.7193 7.85366 19.1737 7.96219C18.6281 8.07071 18.0626 8.01501 17.5487 7.80214C17.0348 7.58927 16.5955 7.22878 16.2865 6.76627C15.9775 6.30375 15.8125 5.75999 15.8125 5.20373C15.8125 4.4578 16.1088 3.74243 16.6363 3.21499C17.1637 2.68754 17.8791 2.39123 18.625 2.39123ZM7.375 2.39123C7.93126 2.39123 8.47503 2.55618 8.93754 2.86522C9.40005 3.17426 9.76054 3.61351 9.97341 4.12743C10.1863 4.64135 10.242 5.20685 10.1335 5.75242C10.0249 6.29799 9.75707 6.79913 9.36374 7.19246C8.9704 7.5858 8.46926 7.85366 7.92369 7.96219C7.37812 8.07071 6.81262 8.01501 6.2987 7.80214C5.78479 7.58927 5.34553 7.22878 5.03649 6.76627C4.72745 6.30375 4.5625 5.75999 4.5625 5.20373C4.5625 4.4578 4.85882 3.74243 5.38626 3.21499C5.91371 2.68754 6.62908 2.39123 7.375 2.39123ZM21.7891 20.8494C22.4871 20.2121 22.9762 19.3786 23.1921 18.4583C23.408 17.5381 23.3406 16.574 22.9988 15.6927C22.6571 14.8114 22.0568 14.0541 21.2769 13.52C20.4969 12.986 19.5738 12.7002 18.6285 12.7002C17.6833 12.7002 16.7601 12.986 15.9802 13.52C15.2002 14.0541 14.6 14.8114 14.2582 15.6927C13.9164 16.574 13.849 17.5381 14.0649 18.4583C14.2808 19.3786 14.7699 20.2121 15.468 20.8494C14.5486 21.247 13.7134 21.8161 13.007 22.5264C12.3007 21.8161 11.4655 21.247 10.5461 20.8494C11.2442 20.2121 11.7332 19.3786 11.9491 18.4583C12.165 17.5381 12.0977 16.574 11.7559 15.6927C11.4141 14.8114 10.8138 14.0541 10.0339 13.52C9.25397 12.986 8.3308 12.7002 7.38555 12.7002C6.44029 12.7002 5.51713 12.986 4.7372 13.52C3.95726 14.0541 3.35701 14.8114 3.01522 15.6927C2.67342 16.574 2.60605 17.5381 2.82195 18.4583C3.03785 19.3786 3.52693 20.2121 4.225 20.8494C2.94608 21.3999 1.83402 22.2763 1 23.3912C0.926132 23.4897 0.872385 23.6018 0.841831 23.7211C0.811276 23.8403 0.804511 23.9644 0.821922 24.0863C0.839333 24.2082 0.880579 24.3254 0.943305 24.4314C1.00603 24.5373 1.08901 24.6299 1.1875 24.7037C1.28599 24.7776 1.39807 24.8313 1.51733 24.8619C1.63659 24.8925 1.76071 24.8992 1.88258 24.8818C2.00446 24.8644 2.12171 24.8231 2.22765 24.7604C2.33359 24.6977 2.42613 24.6147 2.5 24.5162C3.06762 23.7594 3.80364 23.1451 4.64979 22.7221C5.49594 22.299 6.42898 22.0787 7.375 22.0787C8.32103 22.0787 9.25406 22.299 10.1002 22.7221C10.9464 23.1451 11.6824 23.7594 12.25 24.5162C12.3994 24.715 12.6215 24.8462 12.8677 24.8812C13.1138 24.9161 13.3637 24.8519 13.5625 24.7026C13.6334 24.6499 13.6961 24.5871 13.7488 24.5162C14.3164 23.7594 15.0525 23.1451 15.8986 22.7221C16.7448 22.299 17.6778 22.0787 18.6238 22.0787C19.5699 22.0787 20.5029 22.299 21.349 22.7221C22.1952 23.1451 22.9312 23.7594 23.4988 24.5162C23.6482 24.7151 23.8704 24.8466 24.1167 24.8816C24.3629 24.9167 24.613 24.8525 24.8119 24.7031C25.0108 24.5538 25.1423 24.3316 25.1773 24.0853C25.2124 23.8391 25.1482 23.589 24.9988 23.3901C24.169 22.2776 23.0624 21.4016 21.7891 20.8494ZM7.375 14.5787C7.93126 14.5787 8.47503 14.7437 8.93754 15.0527C9.40005 15.3618 9.76054 15.801 9.97341 16.3149C10.1863 16.8288 10.242 17.3943 10.1335 17.9399C10.0249 18.4855 9.75707 18.9866 9.36374 19.38C8.9704 19.7733 8.46926 20.0412 7.92369 20.1497C7.37812 20.2582 6.81262 20.2025 6.2987 19.9896C5.78479 19.7768 5.34553 19.4163 5.03649 18.9538C4.72745 18.4913 4.5625 17.9475 4.5625 17.3912C4.5625 16.6453 4.85882 15.9299 5.38626 15.4025C5.91371 14.875 6.62908 14.5787 7.375 14.5787ZM18.625 14.5787C19.1813 14.5787 19.725 14.7437 20.1875 15.0527C20.6501 15.3618 21.0105 15.801 21.2234 16.3149C21.4363 16.8288 21.492 17.3943 21.3835 17.9399C21.2749 18.4855 21.0071 18.9866 20.6137 19.38C20.2204 19.7733 19.7193 20.0412 19.1737 20.1497C18.6281 20.2582 18.0626 20.2025 17.5487 19.9896C17.0348 19.7768 16.5955 19.4163 16.2865 18.9538C15.9775 18.4913 15.8125 17.9475 15.8125 17.3912C15.8125 16.6453 16.1088 15.9299 16.6363 15.4025C17.1637 14.875 17.8791 14.5787 18.625 14.5787Z" fill="#FF7A3B"/>
</svg>
