<svg width="48" height="48" viewBox="0 0 48 48" fill="none" xmlns="http://www.w3.org/2000/svg">
<path d="M44.5706 24.0001C44.5706 35.3614 35.3604 44.5715 23.9992 44.5715M44.5706 24.0001C44.5706 12.6388 35.3604 3.42871 23.9992 3.42871M44.5706 24.0001H3.42773M44.5706 24.0001C44.5706 29.6807 35.3604 34.2858 23.9992 34.2858C12.6379 34.2858 3.42773 29.6807 3.42773 24.0001M44.5706 24.0001C44.5706 18.3195 35.3604 13.7144 23.9992 13.7144C12.6379 13.7144 3.42773 18.3195 3.42773 24.0001M23.9992 44.5715C12.6379 44.5715 3.42773 35.3614 3.42773 24.0001M23.9992 44.5715V3.42871M23.9992 3.42871C12.6379 3.42871 3.42773 12.6388 3.42773 24.0001M24.4667 44.5715C18.5278 44.5715 13.7135 35.3614 13.7135 24.0001C13.7135 12.6388 18.5278 3.42871 24.4667 3.42871C30.4056 3.42871 35.2199 12.6388 35.2199 24.0001C35.2199 35.3614 30.4056 44.5715 24.4667 44.5715Z" stroke="#525252" stroke-linejoin="round"/>
</svg>
