<svg width="132" height="89" viewBox="0 0 132 89" fill="none" xmlns="http://www.w3.org/2000/svg">
<g clip-path="url(#clip0_1_53)">
<g clip-path="url(#clip1_1_53)">
<path fill-rule="evenodd" clip-rule="evenodd" d="M41.8972 31.5783C41.8972 30.5918 42.7055 29.7927 43.7026 29.7927H46.8465C47.5562 29.7927 48.2439 30.0361 48.7924 30.4811L49.7484 31.2568L49.7725 31.2781L49.8392 31.2568C51.5644 30.7103 53.658 30.606 55.7955 30.606C57.9317 30.606 60.0252 30.7103 61.7512 31.2568L61.8179 31.2781L61.842 31.2568L62.7979 30.4811C63.3485 30.0353 64.0355 29.7923 64.7439 29.7927H67.8877C68.8848 29.7927 69.6932 30.5918 69.6932 31.5783V32.6818C69.6932 33.5356 69.3291 34.3496 68.6911 34.9251L67.9197 35.6206C67.542 35.9608 67.0899 36.208 66.5997 36.3423L66.4173 36.392C67.1319 38.0796 67.5272 39.8836 67.5272 41.3427C67.5272 47.2125 63.8553 49.7481 60.6199 51.9815C58.0722 53.7415 55.7955 55.3127 55.7955 58.1798C55.7955 55.3127 53.5175 53.7408 50.9697 51.9815C47.735 49.7481 44.0632 47.2125 44.0632 41.3427C44.0632 39.8836 44.4584 38.0796 45.1731 36.392L44.9907 36.3423C44.5004 36.208 44.0484 35.9608 43.6707 35.6206L42.8993 34.9251C42.5844 34.6423 42.3325 34.2964 42.1598 33.91C41.9872 33.5235 41.8977 33.1051 41.8972 32.6818V31.5783ZM58.1417 46.1416C58.1417 46.4219 58.0183 46.6909 57.7983 46.8896C57.5783 47.0883 57.2802 47.199 56.9679 47.199C56.7047 47.2 56.4477 47.1184 56.2334 46.9655C56.5861 47.9001 57.4895 48.7858 58.8635 47.3615C60.077 46.0387 58.8095 43.2475 57.5754 41.5911C57.1638 41.039 56.4882 40.7736 55.7955 40.7736C55.1022 40.7736 54.4259 41.039 54.015 41.5911C52.7801 43.2475 51.5141 46.0387 52.7269 47.3615C54.1008 48.7858 55.0042 47.9009 55.357 46.9655C55.1425 47.1188 54.8853 47.2007 54.6217 47.1997C54.3165 47.2018 54.0211 47.0914 53.7921 46.8896C53.6855 46.7961 53.5997 46.6811 53.5405 46.5522C53.4813 46.4233 53.45 46.2834 53.4486 46.1416H58.1417ZM51.3026 37.8795H48.0338L50.6099 39.9198C51.177 40.3683 52.0052 40.225 52.3557 39.6175C52.7986 38.8496 52.2103 37.8795 51.3026 37.8795ZM60.2878 37.8795H63.5566L60.9804 39.9198C60.4134 40.3683 59.5852 40.225 59.2346 39.6175C58.7918 38.8496 59.3801 37.8795 60.2878 37.8795Z" fill="#CCCCCC"/>
<path d="M73.5864 49.9001H76.4819V38.9781H73.5864V49.9001ZM73.5864 37.2749H76.4819V34.6775H73.5864V37.2749ZM78.3477 53.4768H81.2431V48.6652H81.2857C81.9032 49.602 82.9038 50.2194 84.4367 50.2194C87.247 50.2194 89.1632 47.9839 89.1632 44.4497C89.1632 41.0433 87.3109 38.6801 84.4154 38.6801C82.9251 38.6801 81.9032 39.3827 81.2006 40.3407H81.1367V38.9781H78.3477V53.4768ZM83.8193 47.8136C82.0948 47.8136 81.1793 46.5149 81.1793 44.5349C81.1793 42.5762 81.9032 41.022 83.7128 41.022C85.5012 41.022 86.2251 42.4697 86.2251 44.5349C86.2251 46.6001 85.2883 47.8136 83.8193 47.8136ZM94.9392 50.2194C97.6644 50.2194 99.5379 48.8994 99.5379 46.7065C99.5379 44.1517 97.5153 43.6407 95.6844 43.2575C94.1302 42.9381 92.6824 42.853 92.6824 41.9162C92.6824 41.1285 93.4276 40.7027 94.556 40.7027C95.7908 40.7027 96.536 41.1285 96.6637 42.2994H99.2824C99.0695 40.1065 97.4728 38.6801 94.5986 38.6801C92.1076 38.6801 90.1489 39.8085 90.1489 42.1717C90.1489 44.5562 92.065 45.0885 94.0237 45.4717C95.5141 45.7697 96.8979 45.8762 96.8979 46.9194C96.8979 47.6859 96.174 48.1756 94.8966 48.1756C93.5979 48.1756 92.7037 47.622 92.5121 46.3659H89.8295C89.9999 48.6865 91.767 50.2194 94.9392 50.2194ZM110.532 49.9001V38.9781H107.636V45.2801C107.636 46.7278 106.806 47.7497 105.443 47.7497C104.208 47.7497 103.633 47.0472 103.633 45.7697V38.9781H100.759V46.2594C100.759 48.6439 102.122 50.1981 104.549 50.1981C106.082 50.1981 106.933 49.6233 107.679 48.6227H107.743V49.9001H110.532ZM112.404 49.9001H115.3V43.5556C115.3 42.1078 116.088 41.171 117.259 41.171C118.323 41.171 118.941 41.8097 118.941 43.0446V49.9001H121.836V43.5556C121.836 42.1078 122.581 41.171 123.795 41.171C124.859 41.171 125.477 41.8097 125.477 43.0446V49.9001H128.372V42.5549C128.372 40.1704 127.073 38.6801 124.774 38.6801C123.39 38.6801 122.241 39.4039 121.495 40.5962H121.453C120.921 39.4465 119.813 38.6801 118.43 38.6801C116.918 38.6801 115.853 39.4465 115.257 40.4472H115.193V38.9781H112.404V49.9001ZM0.485413 49.9001H3.3809V34.6775H0.485413V49.9001ZM10.4606 50.2194C13.8458 50.2194 16.1664 47.7072 16.1664 44.4497C16.1664 41.1923 13.8458 38.6801 10.4606 38.6801C7.07548 38.6801 4.75483 41.1923 4.75483 44.4497C4.75483 47.7072 7.07548 50.2194 10.4606 50.2194ZM10.4606 48.0052C8.67225 48.0052 7.6929 46.5788 7.6929 44.4497C7.6929 42.3207 8.67225 40.873 10.4606 40.873C12.2277 40.873 13.2284 42.3207 13.2284 44.4497C13.2284 46.5788 12.2277 48.0052 10.4606 48.0052ZM22.3243 53.6259C23.9424 53.6259 25.3475 53.2427 26.263 52.391C27.0721 51.6459 27.5617 50.6027 27.5617 49.0697V38.9781H24.7727V40.1278H24.7301C24.0701 39.2123 23.0695 38.6801 21.7069 38.6801C18.9392 38.6801 16.9804 40.7665 16.9804 44.0239C16.9804 47.3239 19.365 49.2401 21.7921 49.2401C23.1759 49.2401 24.0063 48.6865 24.645 47.9627H24.7088V49.1549C24.7088 50.6452 23.9211 51.433 22.2817 51.433C20.9404 51.433 20.323 50.9007 20.0888 50.2194H17.2146C17.5127 52.3485 19.3437 53.6259 22.3243 53.6259ZM22.2817 46.9194C20.7914 46.9194 19.8121 45.8336 19.8121 43.9814C19.8121 42.1504 20.7914 41.0007 22.2604 41.0007C24.0063 41.0007 24.8579 42.3633 24.8579 43.9601C24.8579 45.5781 24.1127 46.9194 22.2817 46.9194ZM34.5996 50.2194C37.9848 50.2194 40.3054 47.7072 40.3054 44.4497C40.3054 41.1923 37.9848 38.6801 34.5996 38.6801C31.2144 38.6801 28.8938 41.1923 28.8938 44.4497C28.8938 47.7072 31.2144 50.2194 34.5996 50.2194ZM34.5996 48.0052C32.8112 48.0052 31.8319 46.5788 31.8319 44.4497C31.8319 42.3207 32.8112 40.873 34.5996 40.873C36.3667 40.873 37.3673 42.3207 37.3673 44.4497C37.3673 46.5788 36.3667 48.0052 34.5996 48.0052ZM128.242 36.5936C128.242 36.1039 128.638 35.7065 129.129 35.7065H130.903C131.138 35.7065 131.364 35.8 131.53 35.9663C131.696 36.1327 131.79 36.3583 131.79 36.5936C131.79 36.8289 131.696 37.0545 131.53 37.2209C131.364 37.3873 131.138 37.4807 130.903 37.4807H129.129C128.893 37.4807 128.668 37.3873 128.501 37.2209C128.335 37.0545 128.242 36.8289 128.242 36.5936Z" fill="#CCCCCC"/>
</g>
</g>
<defs>
<clipPath id="clip0_1_53">
<rect width="132" height="88" fill="white" transform="translate(0 0.189941)"/>
</clipPath>
<clipPath id="clip1_1_53">
<rect width="132" height="29.0968" fill="white" transform="translate(0 29.6416)"/>
</clipPath>
</defs>
</svg>
